<svg xmlns="http://www.w3.org/2000/svg" version="1.1" xmlns:xlink="http://www.w3.org/1999/xlink" viewBox="0 0 12.027067541490181 6.7668591673295"><g transform="matrix(0.8120536599587139,0,0,0.8120536599587139,1.7661248699634156,4.5266787637543295)"><g transform="matrix(1,0,0,1,0,0)" clip-path="url(#SvgjsClipPath55440)"><g clip-path="url(#SvgjsClipPath554357fab9eb3-e70c-49bc-b2b6-531e61e2ec6b)"><path d=" M 0.7007478945092585 -1.924046941160888 C 0.7293224724656018 -1.9644746773806032 0.761918657689875 -2.00236245111531 0.7959964876970698 -2.038556916526679 C 0.8302859812446818 -2.0747513819380465 0.8666921101964675 -2.109252539026077 0.9043682203907573 -2.142060387790767 C 0.9803554314005889 -2.207464421779731 1.0626925486229415 -2.2667302130965914 1.1505329178961452 -2.3175294627967578 C 1.2381616236289317 -2.368963703118176 1.3312935814125693 -2.411719738282482 1.4280238193833021 -2.446432558910929 C 1.524754057354035 -2.4811453795393756 1.6255059025926974 -2.5059100137682067 1.7277393926142817 -2.5226314334611777 C 1.7789619693952825 -2.5308863115374547 1.830607873257118 -2.536177900047889 1.8824654406593708 -2.5395645166945666 C 1.9343230080616238 -2.5431627968816617 1.9863922390042938 -2.544221114583748 2.038461469946964 -2.5431627968816617 C 2.064496085418299 -2.5429511333412442 2.090530700889634 -2.5416811520987403 2.116565316360969 -2.5401995073158186 C 2.142388268291887 -2.538294535452062 2.1684228837632222 -2.5363895635883056 2.19424583569414 -2.5336379375628804 C 2.2202804511654755 -2.531309638618289 2.2458917395559754 -2.5274996948907766 2.271714691486893 -2.5243247417845165 C 2.2973259798773933 -2.5203031345165865 2.323148931808311 -2.5167048543294914 2.3487602201988116 -2.5118365928998925 L 2.3870713210143535 -2.50485169606612 L 2.425170758289478 -2.49680848153026 C 2.4507820466799783 -2.4917285565602434 2.4757583444492264 -2.4851669868073056 2.50115796929931 -2.479028744135202 C 2.5261342670685583 -2.4720438473014292 2.5513222283782238 -2.4659056046293255 2.576298526147472 -2.4582857171743004 L 2.6486874569702086 -2.43669603605173 C 2.740972760592177 -2.4083331216358044 2.834104718375815 -2.383780150947391 2.9270250126190347 -2.3588038531781423 C 3.02036863394309 -2.335097536651398 3.1137122552671452 -2.312237874286323 3.2079025307528695 -2.2927648285679263 C 3.2548918367255233 -2.2826049786278926 3.3018811426981767 -2.273291782849529 3.34887044867083 -2.2639785870711653 C 3.372365101657157 -2.259110325641566 3.396071418183901 -2.2553003819140542 3.419566071170228 -2.2508554475652893 C 3.4432723876969726 -2.246622176756942 3.466767040683299 -2.24196557886776 3.490473357210043 -2.238367298680665 C 3.6797005623431613 -2.207252758239313 3.869562758097532 -2.1820647969296476 4.060059944473155 -2.168095003262102 C 4.155308537660966 -2.160686779347494 4.25034546730836 -2.1560301814583127 4.346229051117424 -2.1526435648116347 C 4.443805943249826 -2.149891938786209 4.541594498922645 -2.146505322139531 4.639171391055047 -2.1443886867353577 C 4.834325175319852 -2.139520425305758 5.029478959584657 -2.136345472199498 5.224421080309043 -2.135710481578246 C 5.6143053217578185 -2.1340171732549074 6.00355457258534 -2.14015541592701 6.390475524468272 -2.1625917512112505 C 6.584147663950153 -2.1729632646917008 6.774221523244941 -2.190108011465507 6.960062111731384 -2.2184709258814332 C 7.052982405974604 -2.233287373710648 7.144632718975321 -2.2519137652673757 7.235859704895201 -2.2745617640920335 C 7.281579029625351 -2.2853566046533187 7.326875027274665 -2.29805641707836 7.372382688464397 -2.3105445659629846 L 7.440326684938368 -2.331075929383468 C 7.462974683763026 -2.3378491626768234 7.485411019047266 -2.345680713672266 7.508059017871923 -2.352877274046456 L 7.541925184338701 -2.364095441688576 L 7.57557968726506 -2.375948599951948 L 7.60923419019142 -2.3878017582153204 C 7.620452357833539 -2.391611701942833 7.631882189016077 -2.395633309210763 7.643100356658198 -2.3998665800191095 L 7.710621026051335 -2.424631214247941 L 7.746815491462702 -2.4381776808346514 C 7.759303640347327 -2.4428342787238337 7.771791789231952 -2.4470675495321808 7.784068274576158 -2.4513008203405278 C 7.8837618021127325 -2.4851669868073047 7.984725310891814 -2.511624929359475 8.087170464453816 -2.529827993835368 C 8.189403954475399 -2.5480310583112606 8.292907425739486 -2.559672553034215 8.396410897003577 -2.562847506140476 C 8.499914368267664 -2.5658107957063185 8.60362950307217 -2.561154197817137 8.706074656634172 -2.548242721851678 C 8.808519810196174 -2.534696255264967 8.90969498251567 -2.5131065741423964 9.007483538188488 -2.4824153607818795 C 9.10527209386131 -2.4515124838809452 9.200309023508705 -2.412566392444151 9.289842701105247 -2.364730432309828 C 9.469545046919581 -2.269905166202851 9.628716029313438 -2.1426953784120193 9.760159087912616 -1.99516589074112 C 9.601411432599598 -2.1130624827535884 9.429963964861535 -2.208734403022235 9.249414964885531 -2.272656792228277 C 9.15903463312732 -2.3041946597504634 9.066960993045768 -2.3289592939792945 8.973829035262131 -2.3450457230510136 C 8.880697077478494 -2.36134381566315 8.786718465533188 -2.3704453479010965 8.692951517128297 -2.3712920020627664 C 8.599184568723407 -2.3725619833052702 8.505629283858934 -2.3672703947948364 8.413132316696547 -2.3543589188293774 C 8.320635349534161 -2.341870769944753 8.228985036533446 -2.323456041928443 8.139451358936903 -2.298479744159195 C 8.04991768134036 -2.273291782849529 7.961865648526739 -2.2432355601102643 7.877835222981048 -2.2068294311584786 L 7.846509018999278 -2.192859637490933 L 7.814547824396257 -2.178043189661717 L 7.745757173760615 -2.146293658599114 C 7.722897511395542 -2.1354988180378283 7.699402858409214 -2.1259739587190474 7.676119868963304 -2.1158141087790145 L 7.6411953847944405 -2.100785997409382 L 7.605847573544741 -2.086604540201419 C 7.582141257017997 -2.077291344423055 7.5586466040316695 -2.067343158023439 7.534728623964509 -2.0584532893259104 L 7.462763020222607 -2.0315720196929057 C 7.414292069467032 -2.014638936459517 7.365821118711458 -1.9977058532261283 7.316715177334631 -1.982677741856496 C 7.218291631040559 -1.9526215191172311 7.118174776423148 -1.9270102307267307 7.017634594724902 -1.9058438766849948 C 6.917094413026658 -1.8842541955624243 6.816130904247578 -1.8679561029502878 6.715590722549333 -1.8548329634444114 C 6.615050540851088 -1.8414981603981184 6.514933686233677 -1.8307033198368328 6.4156634857779355 -1.8218134511393038 C 6.017524366252885 -1.7856189857279356 5.619385246727833 -1.774189154545398 5.222304444904869 -1.7760941264091543 C 5.123034244449127 -1.7767291170304067 5.023764043993387 -1.7782107618133276 4.924705507078063 -1.7803273972175018 C 4.8256469701627385 -1.783079023242927 4.726376769706998 -1.7856189857279356 4.627529896332091 -1.7898522565362827 C 4.528471359416767 -1.7938738638042127 4.429624486041861 -1.7985304616933946 4.330565949126537 -1.8042453772846634 C 4.229814103887875 -1.810383619956767 4.128427268027959 -1.8175801803309564 4.027887086329715 -1.8296450021347463 C 3.9271352410910523 -1.8404398426960316 3.8270183864736413 -1.8548329634444118 3.727113195396648 -1.8709193925161314 L 3.652395965629321 -1.8836192049411729 C 3.627419667860072 -1.8876408122091024 3.6026550336312413 -1.8931440642599537 3.5778903994024103 -1.8978006621491357 C 3.528149467404331 -1.9071138579274995 3.478831862487086 -1.9179086984887848 3.429514257569842 -1.928491875509653 C 3.2322438379008642 -1.9714595742143768 3.037936707797729 -2.0260687676420552 2.846804530800854 -2.0891445026864277 C 2.7991802342069487 -2.1054425952985643 2.7513442740726255 -2.120894033749032 2.7043549680999717 -2.1386737711440897 L 2.633659345600574 -2.164708386615425 L 2.563387050182011 -2.191801319788847 L 2.496078044329291 -2.2176242717197647 C 2.4744883632067207 -2.226302476876876 2.452263691462898 -2.2334990372510664 2.43046234679991 -2.2413305882465093 C 2.3864363303930998 -2.2559353725353066 2.342198650445871 -2.270751820364522 2.2973259798773915 -2.282604978627894 C 2.118258624684306 -2.331499256464304 1.932206372657448 -2.356052227152717 1.745519130009338 -2.348009012616858 C 1.5588318873612277 -2.3401774616214155 1.3719329811727003 -2.2997497254017003 1.1943472707625364 -2.2282074487406334 C 1.1056602473276633 -2.1922246468696818 1.0190898592969637 -2.149045284624541 0.9361177514533592 -2.0984576984647925 C 0.8944200339911397 -2.073269737155127 0.8542039613118415 -2.0459651404412873 0.8146228792537955 -2.0171788989445263 C 0.7949381699949811 -2.002785778196146 0.7754651242765841 -1.9877576668265133 0.7564154056390219 -1.9723062283760462 C 0.7373656870014614 -1.9570664534659956 0.7185276319043166 -1.941191687934694 0.7007478945092585 -1.924046941160888 Z" fill="#d3b39f" transform="matrix(1,0,0,1,0,0)" fill-rule="nonzero"></path></g><g clip-path="url(#SvgjsClipPath554357fab9eb3-e70c-49bc-b2b6-531e61e2ec6b)"><path d=" M 3.1120189469438064 -0.9810858686015553 C 3.2896046573539697 -0.9681743926360964 3.464438741738708 -0.9537812718877161 3.638849499042611 -0.9451030667306051 C 3.813048592806097 -0.9362131980330761 3.985977705327079 -0.9309216095226418 4.158271827226809 -0.9315566001438942 C 4.2446305517170915 -0.9315566001438942 4.329295967884034 -0.9334615720076505 4.417348000697656 -0.9351548803309888 L 4.679175800193928 -0.9400231417605878 L 5.201561417943969 -0.9487013469176997 C 5.54932461484969 -0.9546279260493855 5.896029494053321 -0.9614011593427412 6.241464392014452 -0.9749476259294525 L 6.306233435382163 -0.9776992519548782 C 6.327823116504733 -0.978757569656965 6.349412797627305 -0.9796042238186344 6.371002478749875 -0.9796042238186344 C 6.392592159872446 -0.9798158873590515 6.414393504535433 -0.9800275508994689 6.435983185658004 -0.9800275508994689 C 6.457572866780574 -0.9802392144398864 6.479162547903146 -0.9800275508994689 6.500752229025716 -0.9798158873590519 C 6.587110953515998 -0.9791808967378 6.673046350925445 -0.9779109154952956 6.759405075415728 -0.9753709530102874 C 6.84576379990601 -0.9728309905252788 6.932334187936711 -0.9702910280402701 7.020386220750331 -0.9666927478531755 C 7.1084382535639525 -0.9630944676660804 7.197760267620078 -0.9603428416406548 7.2913155524845505 -0.9520879635643777 C 7.215963332095971 -0.895997125353778 7.134684532575705 -0.8523944360278022 7.0508657705704305 -0.8145066622930948 C 6.967047008565157 -0.7764072250179703 6.88026495699404 -0.7461393387382884 6.7926362512612535 -0.7211630409690399 C 6.705007545528467 -0.6959750796593744 6.616532185634012 -0.6767136974813948 6.528268489279973 -0.6610505954905102 C 6.50604381753615 -0.6570289882225802 6.4840308093327454 -0.6534307080354851 6.462017801129339 -0.6500440913888075 C 6.439793129385516 -0.6464458112017124 6.417780121182112 -0.6434825216358693 6.395767112978707 -0.6405192320700261 C 6.3737541047753 -0.6371326154233485 6.351529433031479 -0.6352276435595923 6.3293047612876565 -0.633322671695836 L 6.262842409596606 -0.6276077561045672 C 5.908094315857114 -0.5983981875269717 5.553134558577203 -0.5918366177740335 5.19923311899938 -0.6019964677140668 C 5.022282399210468 -0.6070763926840836 4.845755006502391 -0.6166012520028645 4.669650940875148 -0.6303593821299929 C 4.581598908061528 -0.637344278963766 4.493546875247906 -0.6451758299592072 4.4057065059747025 -0.6542773621971545 C 4.318501127322751 -0.662955567354266 4.228120795564539 -0.6737504079155507 4.139645435670083 -0.687085210961845 C 3.9620597252599192 -0.7137548170544319 3.7865906502539293 -0.7520659178699738 3.614719855435034 -0.800113541544714 C 3.4426373970757203 -0.8485844923002892 3.274153218903503 -0.9074269565363151 3.1120189469438064 -0.9810858686015553 Z" fill="#806319" transform="matrix(1,0,0,1,0,0)" fill-rule="nonzero"></path></g><g clip-path="url(#SvgjsClipPath554357fab9eb3-e70c-49bc-b2b6-531e61e2ec6b)"><path d=" M 8.742057458505126 -0.24999999999999956 C 8.246341446847671 -0.24999999999999956 7.8429107388121855 -0.6534307080354851 7.8429107388121855 -1.1491467196929381 C 7.8429107388121855 -1.6448627313503916 8.246341446847671 -2.0482934393858767 8.742057458505126 -2.0482934393858767 C 9.237773470162576 -2.0482934393858767 9.641204178198063 -1.6448627313503916 9.641204178198063 -1.1491467196929381 C 9.641204178198063 -0.6534307080354851 9.237773470162576 -0.24999999999999956 8.742057458505126 -0.24999999999999956 Z M 8.742057458505126 -1.6886770842167853 C 8.44445852067832 -1.6886770842167853 8.202527093981278 -1.446533993979327 8.202527093981278 -1.1491467196929381 C 8.202527093981278 -0.8517594454065494 8.444670184218737 -0.609616355169091 8.742057458505126 -0.609616355169091 C 9.039656396331932 -0.609616355169091 9.281587823028971 -0.8517594454065494 9.281587823028971 -1.1491467196929381 C 9.281587823028971 -1.446533993979327 9.039656396331932 -1.6886770842167853 8.742057458505126 -1.6886770842167853 Z" fill="#595959" transform="matrix(1,0,0,1,0,0)" fill-rule="nonzero"></path></g><g clip-path="url(#SvgjsClipPath554357fab9eb3-e70c-49bc-b2b6-531e61e2ec6b)"><path d=" M 1.792931763062828 -0.24999999999999956 C 1.2972157514053744 -0.24999999999999956 0.8937850433698894 -0.6534307080354851 0.8937850433698894 -1.1491467196929381 C 0.8937850433698894 -1.6448627313503916 1.2972157514053744 -2.0482934393858767 1.792931763062828 -2.0482934393858767 C 2.288647774720282 -2.0482934393858767 2.6920784827557673 -1.6448627313503916 2.6920784827557673 -1.1491467196929381 C 2.6920784827557673 -0.6534307080354851 2.288647774720282 -0.24999999999999956 1.792931763062828 -0.24999999999999956 Z M 1.792931763062828 -1.6886770842167853 C 1.495332825236022 -1.6886770842167853 1.2534013985389816 -1.446533993979327 1.2534013985389816 -1.1491467196929381 C 1.2534013985389816 -0.8517594454065494 1.4955444887764395 -0.609616355169091 1.792931763062828 -0.609616355169091 C 2.090530700889634 -0.609616355169091 2.332462127586675 -0.8517594454065494 2.332462127586675 -1.1491467196929381 C 2.332462127586675 -1.446533993979327 2.090530700889634 -1.6886770842167853 1.792931763062828 -1.6886770842167853 Z" fill="#595959" transform="matrix(1,0,0,1,0,0)" fill-rule="nonzero"></path></g><g clip-path="url(#SvgjsClipPath554357fab9eb3-e70c-49bc-b2b6-531e61e2ec6b)"><path d=" M 7.70384779275798 -2.876532873039001 C 7.704059456298398 -2.8763212094985837 7.702789475055893 -2.8775911907410876 7.701942820894224 -2.8784378449027574 L 7.698767867787965 -2.8811894709281827 L 7.6917829709541925 -2.8873277136002864 L 7.676966523124977 -2.900027526025328 C 7.6668066731849445 -2.9084940676420223 7.656223496164076 -2.9171722727991343 7.645640319143208 -2.9256388144158283 C 7.624262301561056 -2.9425718976492163 7.60224929335765 -2.9595049808826053 7.5798129580734095 -2.9762264005755767 C 7.53494028750493 -3.0094575764211022 7.488797635693945 -3.0416304345645404 7.4415966661808755 -3.0729566385463096 C 7.394395696667804 -3.104282842528079 7.346348072993064 -3.1345507288077608 7.297665458697071 -3.1637602973853562 C 7.248771180860661 -3.1929698659629517 7.199453575943417 -3.221544443919295 7.149077653324086 -3.248637377092717 C 6.94842061700843 -3.3580674274884914 6.738027057833575 -3.4520460394337986 6.521495255986618 -3.531419867090308 C 6.088219988752287 -3.689744195322492 5.630603414369957 -3.7873210874548944 5.166001943153854 -3.8271138330533576 C 4.701188808397335 -3.866906578651821 4.229814103887879 -3.8476451964738416 3.764154314969689 -3.7805478541615387 C 3.2984945260515004 -3.712180530606732 2.8383379891841627 -3.59618891045802 2.3902462741206154 -3.4425211801150173 C 2.8277548121632954 -3.624128497793111 3.2817731063585294 -3.7701763406810884 3.7484912129788044 -3.8690232140559946 C 4.214997656058662 -3.9668117697288143 4.69441557510398 -4.017399355888563 5.175526802472635 -4.006816178867695 C 5.656426366300874 -3.996233001846827 6.139230901992869 -3.9255373793474293 6.605737345072726 -3.787744414535729 C 6.838990566612655 -3.7185304368192527 7.068222180884655 -3.6334416935714744 7.290468898322882 -3.529726558766969 C 7.346136409452647 -3.5039036068360514 7.401168929961161 -3.476810673662629 7.455778123388838 -3.4486594227871206 C 7.510387316816517 -3.420508171911612 7.56457318316336 -3.391086939793599 7.61833572242937 -3.3601840628926647 C 7.671886598154962 -3.3292811859917304 7.725014146799719 -3.297108327848292 7.77771836836364 -3.2630304978410978 C 7.803964647375393 -3.2458857510672914 7.830210926387146 -3.228529340753068 7.856457205398899 -3.210326276277175 C 7.869580344904774 -3.2012247440392287 7.8827034844106505 -3.191911548260865 7.895826623916527 -3.1821750254016665 L 7.9157229967157585 -3.1673585775724513 L 7.926094510196209 -3.1595270265770092 L 7.93159776224706 -3.155293755768662 L 7.938159331999999 -3.150002167258228 L 7.70384779275798 -2.876532873039001 Z" fill="#806319" transform="matrix(1,0,0,1,0,0)" fill-rule="nonzero"></path></g></g><g><path d=" M 0.213 1.029 Q 0.1635 1.029 0.11850000000000001 1.0125 Q 0.0735 0.996 0.045 0.96 Q 0.0165 0.9239999999999999 0.0165 0.8684999999999999 Q 0.0165 0.855 0.02325 0.84375 Q 0.03 0.8325 0.036000000000000004 0.8325 Q 0.048 0.8325 0.048 0.8684999999999999 Q 0.048 0.9195 0.0915 0.948 Q 0.126 0.9704999999999999 0.1845 0.9704999999999999 Q 0.243 0.9704999999999999 0.306 0.9495 Q 0.369 0.9285 0.426 0.8895 Q 0.4935 0.8445 0.57675 0.7597499999999999 Q 0.66 0.6749999999999999 0.75 0.5745 Q 0.678 0.567 0.60675 0.5579999999999999 Q 0.5355 0.5489999999999999 0.4635 0.5489999999999999 Q 0.41550000000000004 0.5489999999999999 0.3675 0.55875 Q 0.3195 0.5685 0.2805 0.5954999999999999 Q 0.2415 0.6224999999999999 0.222 0.6749999999999999 Q 0.2205 0.6809999999999999 0.21825 0.6885 Q 0.216 0.696 0.216 0.7035 Q 0.216 0.7184999999999999 0.2235 0.7304999999999999 Q 0.2265 0.7394999999999999 0.2265 0.741 Q 0.2265 0.7545 0.2145 0.7545 Q 0.20400000000000001 0.7545 0.198 0.744 Q 0.183 0.717 0.183 0.6749999999999999 Q 0.183 0.5954999999999999 0.21225 0.5534999999999999 Q 0.2415 0.5115 0.291 0.49649999999999994 Q 0.3405 0.4815 0.3975 0.4815 Q 0.423 0.4815 0.45075 0.48374999999999996 Q 0.47850000000000004 0.486 0.5055000000000001 0.48899999999999993 Q 0.5715 0.49499999999999994 0.642 0.50925 Q 0.7125 0.5235 0.783 0.5385 Q 0.861 0.44699999999999995 0.93675 0.354 Q 1.0125 0.261 1.0785 0.17774999999999996 Q 1.1445 0.09449999999999992 1.191 0.034499999999999975 Q 1.1925000000000001 0.029999999999999916 1.197 0.02849999999999997 Q 1.2 0.025499999999999967 1.2015 0.025499999999999967 Q 1.218 0.01649999999999996 1.2435 0.009749999999999925 Q 1.2690000000000001 0.0030000000000000027 1.278 0.0030000000000000027 Q 1.293 0.0030000000000000027 1.293 0.019499999999999962 Q 1.293 0.02399999999999991 1.2855 0.03599999999999992 Q 1.2105000000000001 0.16349999999999998 1.1572500000000001 0.29699999999999993 Q 1.104 0.43049999999999994 1.0635000000000001 0.5714999999999999 L 1.0605 0.582 Q 1.0695000000000001 0.582 1.07925 0.58275 Q 1.089 0.5834999999999999 1.0965 0.5834999999999999 Q 1.161 0.588 1.206 0.57 Q 1.239 0.5579999999999999 1.2510000000000001 0.5355 Q 1.2555 0.5295 1.2585 0.5295 Q 1.266 0.5295 1.2690000000000001 0.53775 Q 1.272 0.546 1.2675 0.5534999999999999 Q 1.2510000000000001 0.582 1.209 0.5954999999999999 Q 1.185 0.606 1.15425 0.609 Q 1.1235 0.612 1.0905 0.6105 L 1.0815000000000001 0.6105 L 1.0635000000000001 0.609 L 1.0545 0.609 Q 1.032 0.6915 1.0230000000000001 0.78 Q 1.0215 0.7875 1.0215 0.79425 Q 1.0215 0.8009999999999999 1.0215 0.8085 Q 1.0215 0.894 1.068 0.894 Q 1.098 0.894 1.13925 0.867 Q 1.1805 0.84 1.22325 0.8009999999999999 Q 1.266 0.762 1.3005 0.72375 Q 1.335 0.6855 1.3515 0.663 Q 1.3545 0.6599999999999999 1.3605 0.6599999999999999 Q 1.3755 0.6599999999999999 1.3695 0.6765 Q 1.3665 0.6809999999999999 1.344 0.71175 Q 1.3215000000000001 0.7424999999999999 1.2825 0.78525 Q 1.2435 0.828 1.191 0.87 Q 1.149 0.903 1.10775 0.91275 Q 1.0665 0.9225 1.0455 0.9225 Q 1.0035 0.9225 0.97875 0.88425 Q 0.9540000000000001 0.846 0.9540000000000001 0.7859999999999999 Q 0.9540000000000001 0.7424999999999999 0.963 0.696 Q 0.972 0.6495 0.984 0.603 Q 0.9405 0.5985 0.8955000000000001 0.5932499999999999 Q 0.8505 0.588 0.8055 0.582 Q 0.7155 0.6915 0.62625 0.78675 Q 0.537 0.882 0.459 0.9405 Q 0.4005 0.9824999999999999 0.33825 1.00575 Q 0.276 1.029 0.213 1.029 M 0.99 0.5745 Q 1.0170000000000001 0.4695 1.05375 0.3637499999999999 Q 1.0905 0.258 1.1265 0.17099999999999993 L 1.1340000000000001 0.1529999999999999 Q 1.0695000000000001 0.243 0.99225 0.345 Q 0.915 0.44699999999999995 0.8355 0.5475 Q 0.8745 0.5549999999999999 0.9135 0.56175 Q 0.9525 0.5685 0.99 0.5745 M 1.426477294921875 0.9195 Q 1.363477294921875 0.9195 1.338727294921875 0.888 Q 1.313977294921875 0.8564999999999999 1.313977294921875 0.8099999999999999 Q 1.313977294921875 0.7665 1.334227294921875 0.7004999999999999 Q 1.354477294921875 0.6345 1.387477294921875 0.5579999999999999 Q 1.420477294921875 0.4815 1.458727294921875 0.40574999999999994 Q 1.496977294921875 0.32999999999999996 1.535227294921875 0.26625 Q 1.573477294921875 0.2024999999999999 1.6019772949218751 0.16349999999999998 Q 1.6304772949218749 0.126 1.663477294921875 0.08849999999999991 Q 1.696477294921875 0.050999999999999934 1.736977294921875 0.025499999999999967 Q 1.7774772949218751 0 1.828477294921875 0 Q 1.862977294921875 0 1.8877272949218749 0.018749999999999933 Q 1.912477294921875 0.03749999999999998 1.912477294921875 0.07499999999999996 Q 1.912477294921875 0.08999999999999997 1.9072272949218751 0.10949999999999993 Q 1.901977294921875 0.129 1.889977294921875 0.1499999999999999 Q 1.798477294921875 0.30899999999999994 1.671727294921875 0.44399999999999995 Q 1.544977294921875 0.579 1.403977294921875 0.6945 Q 1.397977294921875 0.717 1.392727294921875 0.735 Q 1.387477294921875 0.753 1.384477294921875 0.7635 Q 1.382977294921875 0.7709999999999999 1.382977294921875 0.77925 Q 1.382977294921875 0.7875 1.382977294921875 0.7949999999999999 Q 1.382977294921875 0.831 1.394977294921875 0.858 Q 1.406977294921875 0.885 1.435477294921875 0.885 Q 1.462477294921875 0.885 1.502227294921875 0.85875 Q 1.541977294921875 0.8325 1.582477294921875 0.79425 Q 1.622977294921875 0.756 1.655977294921875 0.72 Q 1.6889772949218749 0.6839999999999999 1.702477294921875 0.6645 Q 1.706977294921875 0.6599999999999999 1.711477294921875 0.6599999999999999 Q 1.717477294921875 0.6599999999999999 1.721227294921875 0.6659999999999999 Q 1.724977294921875 0.6719999999999999 1.720477294921875 0.6809999999999999 Q 1.705477294921875 0.7064999999999999 1.6724772949218751 0.744 Q 1.639477294921875 0.7815 1.598977294921875 0.81975 Q 1.558477294921875 0.858 1.520977294921875 0.8865 Q 1.474477294921875 0.9195 1.426477294921875 0.9195 M 1.424977294921875 0.6345 Q 1.481977294921875 0.5954999999999999 1.5434772949218751 0.53325 Q 1.604977294921875 0.471 1.664227294921875 0.39749999999999996 Q 1.723477294921875 0.32399999999999995 1.772227294921875 0.252 Q 1.820977294921875 0.17999999999999994 1.850977294921875 0.12149999999999994 Q 1.8599772949218751 0.10499999999999998 1.863727294921875 0.09224999999999994 Q 1.867477294921875 0.0794999999999999 1.867477294921875 0.06899999999999995 Q 1.867477294921875 0.04049999999999998 1.843477294921875 0.04049999999999998 Q 1.822477294921875 0.04049999999999998 1.790977294921875 0.06299999999999994 Q 1.709977294921875 0.126 1.640977294921875 0.22424999999999995 Q 1.5719772949218749 0.3225 1.517977294921875 0.43049999999999994 Q 1.463977294921875 0.5385 1.424977294921875 0.6345 M 1.777490478515625 0.9195 Q 1.714490478515625 0.9195 1.689740478515625 0.888 Q 1.664990478515625 0.8564999999999999 1.664990478515625 0.8099999999999999 Q 1.664990478515625 0.7665 1.685240478515625 0.7004999999999999 Q 1.705490478515625 0.6345 1.738490478515625 0.5579999999999999 Q 1.771490478515625 0.4815 1.809740478515625 0.40574999999999994 Q 1.847990478515625 0.32999999999999996 1.886240478515625 0.26625 Q 1.924490478515625 0.2024999999999999 1.9529904785156251 0.16349999999999998 Q 1.9814904785156249 0.126 2.014490478515625 0.08849999999999991 Q 2.047490478515625 0.050999999999999934 2.087990478515625 0.025499999999999967 Q 2.128490478515625 0 2.179490478515625 0 Q 2.2139904785156252 0 2.238740478515625 0.018749999999999933 Q 2.263490478515625 0.03749999999999998 2.263490478515625 0.07499999999999996 Q 2.263490478515625 0.08999999999999997 2.258240478515625 0.10949999999999993 Q 2.252990478515625 0.129 2.240990478515625 0.1499999999999999 Q 2.149490478515625 0.30899999999999994 2.022740478515625 0.44399999999999995 Q 1.895990478515625 0.579 1.754990478515625 0.6945 Q 1.748990478515625 0.717 1.743740478515625 0.735 Q 1.738490478515625 0.753 1.735490478515625 0.7635 Q 1.733990478515625 0.7709999999999999 1.733990478515625 0.77925 Q 1.733990478515625 0.7875 1.733990478515625 0.7949999999999999 Q 1.733990478515625 0.831 1.745990478515625 0.858 Q 1.757990478515625 0.885 1.786490478515625 0.885 Q 1.813490478515625 0.885 1.853240478515625 0.85875 Q 1.892990478515625 0.8325 1.933490478515625 0.79425 Q 1.973990478515625 0.756 2.006990478515625 0.72 Q 2.039990478515625 0.6839999999999999 2.053490478515625 0.6645 Q 2.057990478515625 0.6599999999999999 2.062490478515625 0.6599999999999999 Q 2.068490478515625 0.6599999999999999 2.072240478515625 0.6659999999999999 Q 2.075990478515625 0.6719999999999999 2.071490478515625 0.6809999999999999 Q 2.056490478515625 0.7064999999999999 2.023490478515625 0.744 Q 1.990490478515625 0.7815 1.949990478515625 0.81975 Q 1.909490478515625 0.858 1.871990478515625 0.8865 Q 1.825490478515625 0.9195 1.777490478515625 0.9195 M 1.775990478515625 0.6345 Q 1.832990478515625 0.5954999999999999 1.8944904785156251 0.53325 Q 1.955990478515625 0.471 2.015240478515625 0.39749999999999996 Q 2.074490478515625 0.32399999999999995 2.123240478515625 0.252 Q 2.171990478515625 0.17999999999999994 2.201990478515625 0.12149999999999994 Q 2.210990478515625 0.10499999999999998 2.2147404785156253 0.09224999999999994 Q 2.218490478515625 0.0794999999999999 2.218490478515625 0.06899999999999995 Q 2.218490478515625 0.04049999999999998 2.194490478515625 0.04049999999999998 Q 2.173490478515625 0.04049999999999998 2.141990478515625 0.06299999999999994 Q 2.060990478515625 0.126 1.991990478515625 0.22424999999999995 Q 1.9229904785156249 0.3225 1.868990478515625 0.43049999999999994 Q 1.814990478515625 0.5385 1.775990478515625 0.6345 M 2.442003662109375 0.1875 Q 2.454003662109375 0.1875 2.468253662109375 0.21524999999999994 Q 2.482503662109375 0.243 2.4945036621093752 0.2759999999999999 Q 2.506503662109375 0.30899999999999994 2.512503662109375 0.32399999999999995 Q 2.515503662109375 0.3374999999999999 2.516253662109375 0.3434999999999999 Q 2.517003662109375 0.3494999999999999 2.517003662109375 0.3554999999999999 Q 2.515503662109375 0.37049999999999994 2.503503662109375 0.37349999999999994 Q 2.493003662109375 0.366 2.475753662109375 0.34124999999999994 Q 2.4585036621093748 0.3165 2.440503662109375 0.2895 Q 2.422503662109375 0.26249999999999996 2.413503662109375 0.24749999999999994 Q 2.388003662109375 0.26249999999999996 2.352003662109375 0.2909999999999999 Q 2.316003662109375 0.3195 2.2837536621093752 0.34275 Q 2.251503662109375 0.366 2.238003662109375 0.366 Q 2.232003662109375 0.366 2.232003662109375 0.36 Q 2.233503662109375 0.3494999999999999 2.256003662109375 0.3314999999999999 Q 2.2710036621093748 0.31799999999999995 2.298753662109375 0.29399999999999993 Q 2.326503662109375 0.2699999999999999 2.356503662109375 0.24524999999999997 Q 2.386503662109375 0.22049999999999992 2.410503662109375 0.20399999999999996 Q 2.434503662109375 0.1875 2.442003662109375 0.1875 M 2.149503662109375 0.9209999999999999 Q 2.107503662109375 0.9209999999999999 2.076003662109375 0.9015 Q 2.023503662109375 0.87 2.023503662109375 0.7875 Q 2.023503662109375 0.753 2.035503662109375 0.708 Q 2.046003662109375 0.6705 2.073003662109375 0.62625 Q 2.100003662109375 0.582 2.136753662109375 0.5415 Q 2.173503662109375 0.5009999999999999 2.217003662109375 0.4755 Q 2.2605036621093753 0.44999999999999996 2.304003662109375 0.44999999999999996 Q 2.322003662109375 0.44999999999999996 2.335503662109375 0.45449999999999996 Q 2.3535036621093752 0.46049999999999996 2.366253662109375 0.47624999999999995 Q 2.379003662109375 0.49199999999999994 2.379003662109375 0.516 Q 2.379003662109375 0.5415 2.366253662109375 0.5445 Q 2.3535036621093752 0.5475 2.3535036621093752 0.5385 Q 2.3535036621093752 0.5355 2.3542536621093753 0.5325 Q 2.355003662109375 0.5295 2.355003662109375 0.528 Q 2.355003662109375 0.516 2.348253662109375 0.50625 Q 2.3415036621093748 0.49649999999999994 2.323503662109375 0.49649999999999994 Q 2.299503662109375 0.49649999999999994 2.264253662109375 0.522 Q 2.229003662109375 0.5475 2.192253662109375 0.5902499999999999 Q 2.155503662109375 0.633 2.127753662109375 0.6839999999999999 Q 2.100003662109375 0.735 2.091003662109375 0.7859999999999999 Q 2.089503662109375 0.7935 2.088753662109375 0.80025 Q 2.088003662109375 0.8069999999999999 2.088003662109375 0.8145 Q 2.088003662109375 0.849 2.103753662109375 0.87225 Q 2.119503662109375 0.8955 2.1540036621093748 0.8955 Q 2.196003662109375 0.8955 2.235003662109375 0.86325 Q 2.274003662109375 0.831 2.304753662109375 0.7859999999999999 Q 2.335503662109375 0.741 2.350503662109375 0.7064999999999999 Q 2.362503662109375 0.6795 2.367003662109375 0.6599999999999999 Q 2.371503662109375 0.6405 2.371503662109375 0.627 Q 2.371503662109375 0.615 2.369253662109375 0.606 Q 2.367003662109375 0.597 2.364003662109375 0.591 Q 2.361003662109375 0.582 2.361003662109375 0.5774999999999999 Q 2.361003662109375 0.5654999999999999 2.370753662109375 0.5579999999999999 Q 2.380503662109375 0.5505 2.391003662109375 0.5505 Q 2.400003662109375 0.5505 2.410503662109375 0.5565 Q 2.422503662109375 0.5594999999999999 2.443503662109375 0.5609999999999999 Q 2.464503662109375 0.5625 2.488503662109375 0.5625 Q 2.514003662109375 0.5625 2.540253662109375 0.5609999999999999 Q 2.566503662109375 0.5594999999999999 2.586003662109375 0.5549999999999999 Q 2.5890036621093753 0.5534999999999999 2.595003662109375 0.5534999999999999 Q 2.605503662109375 0.5534999999999999 2.605503662109375 0.5594999999999999 Q 2.605503662109375 0.5654999999999999 2.595003662109375 0.57 Q 2.5425036621093753 0.594 2.501253662109375 0.5954999999999999 Q 2.460003662109375 0.597 2.430003662109375 0.597 Q 2.433003662109375 0.6345 2.413503662109375 0.6772499999999999 Q 2.394003662109375 0.72 2.373003662109375 0.753 Q 2.347503662109375 0.7905 2.314503662109375 0.8295 Q 2.281503662109375 0.8684999999999999 2.241003662109375 0.8947499999999999 Q 2.200503662109375 0.9209999999999999 2.149503662109375 0.9209999999999999 M 2.9625146484375 0.46349999999999997 Q 2.9400146484375 0.45749999999999996 2.9115146484375 0.43875 Q 2.8830146484375 0.42 2.8620146484375 0.39074999999999993 Q 2.8410146484375 0.36149999999999993 2.8410146484375 0.3255 Q 2.8410146484375 0.30899999999999994 2.8470146484375 0.2925 Q 2.8470146484375 0.2909999999999999 2.8477646484375 0.2819999999999999 Q 2.8485146484375 0.2729999999999999 2.8500146484375 0.2669999999999999 Q 2.8665146484375 0.19199999999999995 2.9265146484375 0.14325 Q 2.9865146484375 0.09449999999999992 3.0735146484375 0.0675 Q 3.1605146484375 0.04049999999999998 3.2550146484375 0.034499999999999975 Q 3.2730146484375 0.03299999999999992 3.2910146484375 0.03299999999999992 Q 3.3090146484375 0.03299999999999992 3.3270146484375 0.03299999999999992 Q 3.4320146484375 0.03299999999999992 3.5355146484375 0.046499999999999986 Q 3.6390146484375 0.05999999999999994 3.7237646484375 0.07274999999999998 Q 3.8085146484375 0.08549999999999991 3.8580146484375 0.08699999999999997 Q 3.9000146484375 0.04349999999999998 3.9195146484375 0.038999999999999924 Q 3.9240146484375 0.03749999999999998 3.9330146484375 0.03749999999999998 Q 3.9495146484375 0.03749999999999998 3.9630146484375 0.04574999999999996 Q 3.9765146484375 0.05399999999999994 3.9765146484375 0.06899999999999995 Q 3.9765146484375 0.0824999999999999 3.9645146484375 0.09449999999999992 Q 3.9540146484375 0.10499999999999998 3.9315146484375 0.12 Q 3.9090146484375 0.135 3.8880146484375 0.15749999999999997 Q 3.8580146484375 0.1875 3.8340146484375 0.22499999999999998 Q 3.8100146484375 0.26249999999999996 3.8100146484375 0.29699999999999993 Q 3.8100146484375 0.3225 3.8220146484375 0.3404999999999999 Q 3.8250146484375 0.3434999999999999 3.8250146484375 0.3464999999999999 Q 3.8250146484375 0.35849999999999993 3.8130146484375 0.35849999999999993 Q 3.8025146484375 0.35849999999999993 3.7905146484375 0.3464999999999999 Q 3.7785146484375 0.3314999999999999 3.7785146484375 0.2819999999999999 Q 3.7785146484375 0.252 3.7845146484375 0.21749999999999992 Q 3.7905146484375 0.18299999999999994 3.8055146484374998 0.15449999999999997 Q 3.8115146484375 0.1439999999999999 3.8227646484375 0.12974999999999992 Q 3.8340146484375 0.11549999999999994 3.8400146484375 0.10799999999999998 Q 3.7320146484375 0.10649999999999993 3.6210146484375 0.09599999999999997 Q 3.5100146484375 0.08549999999999991 3.4020146484375 0.08549999999999991 Q 3.3510146484375 0.08549999999999991 3.2880146484375 0.09224999999999994 Q 3.2250146484375 0.09899999999999998 3.1590146484375 0.11399999999999999 Q 3.0930146484375 0.129 3.0360146484375 0.15674999999999994 Q 2.9790146484375 0.1845 2.9385146484375 0.22499999999999998 Q 2.8980146484375 0.26549999999999996 2.8860146484375 0.3225 Q 2.8845146484375 0.3284999999999999 2.8837646484375 0.33299999999999996 Q 2.8830146484375 0.3374999999999999 2.8830146484375 0.34199999999999997 Q 2.8830146484375 0.37049999999999994 2.9002646484375 0.39 Q 2.9175146484375 0.4095 2.9400146484375 0.42224999999999996 Q 2.9625146484375 0.43499999999999994 2.9745146484375 0.44549999999999995 Q 2.9850146484375 0.45149999999999996 2.9850146484375 0.45749999999999996 Q 2.9850146484375 0.46349999999999997 2.9782646484375 0.46499999999999997 Q 2.9715146484375 0.46649999999999997 2.9625146484375 0.46349999999999997 M 3.1110146484375 0.945 Q 3.1065146484375 0.945 3.0930146484375 0.942 Q 3.0795146484375 0.939 3.0675146484375 0.9345 Q 3.0555146484375 0.9299999999999999 3.0540146484375 0.9239999999999999 Q 3.0495146484375 0.8955 3.0682646484375 0.8422499999999999 Q 3.0870146484375 0.7889999999999999 3.1177646484375 0.7244999999999999 Q 3.1485146484375 0.6599999999999999 3.1822646484375 0.5954999999999999 Q 3.2160146484375 0.5309999999999999 3.2445146484375 0.47924999999999995 Q 3.2730146484375 0.42749999999999994 3.2865146484375 0.40049999999999997 Q 3.2985146484375 0.375 3.2985146484375 0.35849999999999993 Q 3.2985146484375 0.351 3.2977646484375 0.34724999999999995 Q 3.2970146484375 0.3434999999999999 3.2955146484375 0.3404999999999999 Q 3.2985146484375 0.3225 3.3180146484375 0.2925 Q 3.3375146484375 0.26249999999999996 3.3660146484375 0.23249999999999993 Q 3.3945146484375 0.2024999999999999 3.4267646484375 0.1822499999999999 Q 3.4590146484375 0.16199999999999992 3.4890146484375 0.16199999999999992 Q 3.4980146484375 0.16199999999999992 3.5205146484375 0.16874999999999996 Q 3.5430146484375 0.1755 3.5610146484375003 0.1905 Q 3.5790146484375 0.2054999999999999 3.5760146484375 0.22949999999999993 Q 3.5655146484375 0.22199999999999998 3.5580146484375 0.22199999999999998 Q 3.5235146484375 0.22199999999999998 3.4830146484375 0.255 Q 3.4425146484375 0.2879999999999999 3.3997646484375 0.3434999999999999 Q 3.3570146484375 0.3989999999999999 3.3157646484375 0.46499999999999997 Q 3.2745146484375 0.5309999999999999 3.2385146484375 0.59775 Q 3.2025146484375 0.6645 3.1755146484375 0.72075 Q 3.1485146484375 0.7769999999999999 3.1335146484375 0.8115 Q 3.1275146484375 0.8265 3.1245146484375 0.8385 Q 3.1215146484375 0.8504999999999999 3.1215146484375 0.858 Q 3.1215146484375 0.879 3.1365146484375 0.879 Q 3.1470146484375 0.879 3.1590146484375 0.8707499999999999 Q 3.1710146484375 0.8624999999999999 3.1815146484375 0.8504999999999999 Q 3.1980146484375 0.831 3.2115146484375 0.81375 Q 3.2250146484375 0.7965 3.2355146484375 0.7995 Q 3.2370146484375 0.8009999999999999 3.2370146484375 0.8039999999999999 Q 3.2370146484375 0.813 3.2280146484375 0.825 Q 3.2190146484375 0.837 3.2175146484375 0.8385 Q 3.2055146484375 0.8534999999999999 3.1882646484375 0.879 Q 3.1710146484375 0.9045 3.1515146484375 0.92475 Q 3.1320146484375 0.945 3.1110146484375 0.945 M 3.810012451171875 0.9195 Q 3.784512451171875 0.9195 3.762762451171875 0.9075 Q 3.741012451171875 0.8955 3.730512451171875 0.8624999999999999 Q 3.726012451171875 0.849 3.726012451171875 0.825 Q 3.726012451171875 0.7919999999999999 3.735012451171875 0.7515 Q 3.744012451171875 0.711 3.754512451171875 0.6825 Q 3.747012451171875 0.6855 3.726762451171875 0.70875 Q 3.706512451171875 0.732 3.677262451171875 0.76425 Q 3.648012451171875 0.7965 3.612762451171875 0.82875 Q 3.577512451171875 0.861 3.540012451171875 0.882 Q 3.502512451171875 0.903 3.466512451171875 0.903 Q 3.442512451171875 0.903 3.415512451171875 0.8887499999999999 Q 3.388512451171875 0.8744999999999999 3.372012451171875 0.852 Q 3.349512451171875 0.822 3.349512451171875 0.7905 Q 3.349512451171875 0.75 3.377262451171875 0.7064999999999999 Q 3.405012451171875 0.663 3.449262451171875 0.62175 Q 3.493512451171875 0.5805 3.543762451171875 0.54675 Q 3.594012451171875 0.5129999999999999 3.639762451171875 0.48974999999999996 Q 3.685512451171875 0.46649999999999997 3.714012451171875 0.45899999999999996 Q 3.744012451171875 0.44999999999999996 3.781512451171875 0.44999999999999996 Q 3.802512451171875 0.44999999999999996 3.825012451171875 0.45525 Q 3.847512451171875 0.46049999999999996 3.862512451171875 0.4725 Q 3.874512451171875 0.4785 3.882012451171875 0.48899999999999993 Q 3.889512451171875 0.49949999999999994 3.889512451171875 0.5115 Q 3.889512451171875 0.5235 3.879012451171875 0.5189999999999999 Q 3.867012451171875 0.5009999999999999 3.846762451171875 0.49574999999999997 Q 3.826512451171875 0.49049999999999994 3.805512451171875 0.49049999999999994 Q 3.745512451171875 0.49049999999999994 3.673512451171875 0.5295 Q 3.601512451171875 0.5685 3.544512451171875 0.621 Q 3.526512451171875 0.6359999999999999 3.495762451171875 0.67275 Q 3.465012451171875 0.7095 3.439512451171875 0.753 Q 3.414012451171875 0.7965 3.414012451171875 0.8325 Q 3.414012451171875 0.852 3.424512451171875 0.867 Q 3.430512451171875 0.8775 3.444012451171875 0.8775 Q 3.465012451171875 0.8775 3.500262451171875 0.855 Q 3.535512451171875 0.8325 3.573012451171875 0.80025 Q 3.610512451171875 0.768 3.641262451171875 0.738 Q 3.672012451171875 0.708 3.685512451171875 0.6945 Q 3.693012451171875 0.6869999999999999 3.714762451171875 0.66375 Q 3.7365124511718752 0.6405 3.762012451171875 0.6134999999999999 Q 3.787512451171875 0.5865 3.807762451171875 0.567 Q 3.828012451171875 0.5475 3.834012451171875 0.5475 Q 3.841512451171875 0.5475 3.858762451171875 0.55125 Q 3.876012451171875 0.5549999999999999 3.8880124511718748 0.5625 Q 3.9000124511718752 0.57 3.892512451171875 0.582 Q 3.8535124511718752 0.639 3.8302624511718752 0.7012499999999999 Q 3.8070124511718753 0.7635 3.802512451171875 0.7995 Q 3.801012451171875 0.8055 3.801012451171875 0.81075 Q 3.801012451171875 0.816 3.801012451171875 0.822 Q 3.801012451171875 0.882 3.843012451171875 0.882 Q 3.865512451171875 0.882 3.903012451171875 0.855 Q 3.940512451171875 0.828 3.979512451171875 0.7905 Q 4.018512451171875 0.753 4.050762451171875 0.71775 Q 4.083012451171875 0.6825 4.0950124511718755 0.6645 Q 4.099512451171875 0.6599999999999999 4.104012451171875 0.6599999999999999 Q 4.110012451171875 0.6599999999999999 4.114512451171875 0.6652499999999999 Q 4.119012451171875 0.6705 4.114512451171875 0.6779999999999999 Q 4.098012451171875 0.705 4.066512451171875 0.7424999999999999 Q 4.035012451171875 0.78 3.996012451171875 0.8175 Q 3.957012451171875 0.855 3.919512451171875 0.882 Q 3.9000124511718752 0.897 3.870012451171875 0.90825 Q 3.840012451171875 0.9195 3.810012451171875 0.9195 M 3.979516845703125 1.1925 Q 3.966016845703125 1.1925 3.966016845703125 1.176 Q 3.966016845703125 1.1205 3.998266845703125 1.0574999999999999 Q 4.030516845703125 0.9944999999999999 4.077766845703125 0.93225 Q 4.125016845703125 0.87 4.172266845703125 0.8182499999999999 Q 4.219516845703125 0.7665 4.251766845703125 0.73275 Q 4.284016845703125 0.699 4.284016845703125 0.693 Q 4.284016845703125 0.6779999999999999 4.275016845703125 0.65025 Q 4.266016845703125 0.6224999999999999 4.251016845703125 0.59925 Q 4.236016845703125 0.576 4.218016845703125 0.576 Q 4.195516845703125 0.576 4.167766845703125 0.61125 Q 4.140016845703125 0.6465 4.101016845703125 0.6915 Q 4.092016845703125 0.702 4.084516845703125 0.702 Q 4.075516845703125 0.702 4.075516845703125 0.6915 Q 4.075516845703125 0.6825 4.081516845703125 0.6765 Q 4.095016845703125 0.6599999999999999 4.117516845703125 0.62925 Q 4.140016845703125 0.5985 4.165516845703125 0.5662499999999999 Q 4.191016845703125 0.534 4.215766845703125 0.51225 Q 4.240516845703125 0.49049999999999994 4.258516845703125 0.49049999999999994 Q 4.296016845703125 0.49049999999999994 4.312516845703125 0.5129999999999999 Q 4.329016845703125 0.5355 4.338016845703125 0.56925 Q 4.347016845703125 0.603 4.359016845703125 0.6405 Q 4.414516845703125 0.588 4.467016845703125 0.54375 Q 4.519516845703125 0.49949999999999994 4.584016845703125 0.45899999999999996 Q 4.594516845703125 0.45299999999999996 4.606516845703125 0.45299999999999996 Q 4.624516845703125 0.45299999999999996 4.638016845703125 0.46349999999999997 Q 4.651516845703125 0.474 4.651516845703125 0.49049999999999994 Q 4.651516845703125 0.5055 4.637266845703125 0.50625 Q 4.623016845703125 0.5069999999999999 4.615516845703125 0.51 Q 4.560016845703125 0.5309999999999999 4.528516845703125 0.552 Q 4.497016845703125 0.573 4.473016845703125 0.5925 L 4.366516845703125 0.6779999999999999 Q 4.366516845703125 0.6945 4.383016845703125 0.738 Q 4.399516845703125 0.7815 4.420516845703125 0.822 Q 4.449016845703125 0.8744999999999999 4.485016845703125 0.8744999999999999 Q 4.509016845703125 0.8744999999999999 4.533016845703125 0.858 Q 4.557016845703125 0.8414999999999999 4.581016845703125 0.8175 Q 4.617016845703125 0.7769999999999999 4.652266845703125 0.73125 Q 4.687516845703125 0.6855 4.702516845703125 0.6645 Q 4.707016845703125 0.6599999999999999 4.713016845703125 0.6599999999999999 Q 4.720516845703125 0.6599999999999999 4.724266845703125 0.6659999999999999 Q 4.728016845703125 0.6719999999999999 4.720516845703125 0.6809999999999999 Q 4.711516845703125 0.693 4.689766845703125 0.723 Q 4.668016845703125 0.753 4.640266845703125 0.7875 Q 4.612516845703125 0.822 4.584016845703125 0.8504999999999999 Q 4.543516845703125 0.888 4.512766845703125 0.9015 Q 4.482016845703125 0.9149999999999999 4.456516845703125 0.9149999999999999 Q 4.450516845703125 0.9149999999999999 4.443016845703125 0.91425 Q 4.435516845703125 0.9135 4.428016845703125 0.9119999999999999 Q 4.395016845703125 0.9045 4.370266845703125 0.873 Q 4.345516845703125 0.8414999999999999 4.328266845703125 0.8025 Q 4.311016845703125 0.7635 4.300516845703125 0.7364999999999999 Q 4.273516845703125 0.7649999999999999 4.235266845703125 0.8062499999999999 Q 4.197016845703125 0.8474999999999999 4.155016845703125 0.89625 Q 4.113016845703125 0.945 4.076266845703125 0.996 Q 4.039516845703125 1.047 4.016266845703125 1.0935 Q 3.993016845703125 1.14 3.991516845703125 1.176 Q 3.990016845703125 1.1925 3.979516845703125 1.1925 M 4.92151171875 0.38249999999999995 Q 4.90201171875 0.38249999999999995 4.88101171875 0.3787499999999999 Q 4.86001171875 0.375 4.86001171875 0.351 Q 4.86001171875 0.3464999999999999 4.88026171875 0.32999999999999996 Q 4.90051171875 0.3135 4.92226171875 0.29625 Q 4.94401171875 0.2789999999999999 4.94851171875 0.2759999999999999 Q 4.97401171875 0.255 4.98001171875 0.255 Q 4.9875117187499995 0.255 4.98001171875 0.27449999999999997 Q 4.97251171875 0.29399999999999993 4.97251171875 0.30899999999999994 Q 4.97251171875 0.3165 4.96351171875 0.3344999999999999 Q 4.95451171875 0.3524999999999999 4.94251171875 0.36749999999999994 Q 4.93051171875 0.38249999999999995 4.92151171875 0.38249999999999995 M 4.75801171875 0.9195 Q 4.73101171875 0.9195 4.70926171875 0.9075 Q 4.68751171875 0.8955 4.67701171875 0.8624999999999999 Q 4.67551171875 0.858 4.67476171875 0.8534999999999999 Q 4.67401171875 0.849 4.67401171875 0.843 Q 4.67401171875 0.813 4.68751171875 0.768 Q 4.70101171875 0.723 4.72051171875 0.6809999999999999 Q 4.71151171875 0.693 4.69951171875 0.7102499999999999 Q 4.68751171875 0.7275 4.66501171875 0.7545 Q 4.65901171875 0.7605 4.65151171875 0.7605 Q 4.64101171875 0.7605 4.64101171875 0.7484999999999999 Q 4.64101171875 0.7394999999999999 4.64701171875 0.7334999999999999 Q 4.68601171875 0.6839999999999999 4.71676171875 0.645 Q 4.74751171875 0.606 4.76251171875 0.579 Q 4.76251171875 0.5774999999999999 4.76176171875 0.57675 Q 4.76101171875 0.576 4.76101171875 0.5745 Q 4.76101171875 0.57 4.76551171875 0.5609999999999999 Q 4.77751171875 0.5249999999999999 4.79026171875 0.50025 Q 4.80301171875 0.4755 4.81801171875 0.4725 Q 4.82101171875 0.4725 4.8240117187500005 0.47174999999999995 Q 4.82701171875 0.471 4.83001171875 0.471 Q 4.84651171875 0.471 4.86001171875 0.4785 Q 4.87351171875 0.486 4.87351171875 0.5009999999999999 Q 4.87351171875 0.5145 4.86376171875 0.534 Q 4.85401171875 0.5534999999999999 4.83901171875 0.582 Q 4.80601171875 0.651 4.77976171875 0.7072499999999999 Q 4.75351171875 0.7635 4.75051171875 0.7995 Q 4.74901171875 0.8055 4.74901171875 0.81075 Q 4.74901171875 0.816 4.74901171875 0.822 Q 4.74901171875 0.882 4.78801171875 0.882 Q 4.81201171875 0.882 4.84951171875 0.85575 Q 4.88701171875 0.8295 4.92601171875 0.79125 Q 4.9650117187500005 0.753 4.99726171875 0.71775 Q 5.02951171875 0.6825 5.04151171875 0.6645 Q 5.04601171875 0.6599999999999999 5.05051171875 0.6599999999999999 Q 5.05651171875 0.6599999999999999 5.06026171875 0.6645 Q 5.06401171875 0.6689999999999999 5.06101171875 0.6765 Q 5.04751171875 0.702 5.01526171875 0.74025 Q 4.98301171875 0.7785 4.94326171875 0.81675 Q 4.90351171875 0.855 4.86601171875 0.882 Q 4.84651171875 0.897 4.81726171875 0.90825 Q 4.78801171875 0.9195 4.75801171875 0.9195 M 5.469022705078125 1.062 Q 5.412022705078125 1.062 5.377522705078125 1.02975 Q 5.343022705078125 0.9974999999999999 5.343022705078125 0.9435 Q 5.343022705078125 0.9045 5.364772705078125 0.855 Q 5.386522705078125 0.8055 5.434522705078125 0.75 Q 5.536522705078125 0.6315 5.661772705078125 0.5579999999999999 Q 5.787022705078125 0.4845 5.932522705078125 0.43799999999999994 Q 5.946022705078125 0.4019999999999999 5.963272705078125 0.3434999999999999 Q 5.980522705078125 0.2849999999999999 6.004522705078125 0.21975 Q 6.028522705078125 0.15449999999999997 6.057022705078125 0.10199999999999998 Q 5.989522705078125 0.09899999999999998 5.9145227050781255 0.10724999999999996 Q 5.839522705078125 0.11549999999999994 5.7727727050781255 0.13574999999999993 Q 5.706022705078125 0.15599999999999992 5.664772705078125 0.19124999999999992 Q 5.623522705078125 0.22649999999999992 5.623522705078125 0.27749999999999997 Q 5.623522705078125 0.3075 5.640772705078125 0.32624999999999993 Q 5.658022705078125 0.345 5.679772705078125 0.3554999999999999 Q 5.701522705078125 0.366 5.713522705078125 0.37349999999999994 Q 5.724022705078125 0.37949999999999995 5.724022705078125 0.384 Q 5.724022705078125 0.39149999999999996 5.709022705078125 0.387 Q 5.659522705078125 0.37649999999999995 5.623522705078125 0.33524999999999994 Q 5.587522705078125 0.29399999999999993 5.587522705078125 0.243 Q 5.584522705078125 0.18599999999999994 5.616022705078125 0.1469999999999999 Q 5.647522705078125 0.10799999999999998 5.701522705078125 0.08324999999999994 Q 5.755522705078125 0.058499999999999996 5.823022705078125 0.0472499999999999 Q 5.890522705078125 0.03599999999999992 5.959522705078125 0.03599999999999992 Q 5.997022705078125 0.03599999999999992 6.031522705078125 0.038250000000000006 Q 6.066022705078125 0.04049999999999998 6.097522705078125 0.046499999999999986 Q 6.114022705078125 0.026999999999999913 6.133522705078125 0.014999999999999902 Q 6.153022705078125 0.0030000000000000027 6.174022705078125 0.0030000000000000027 Q 6.190522705078125 0.0030000000000000027 6.190522705078125 0.013499999999999956 Q 6.190522705078125 0.025499999999999967 6.174022705078125 0.02849999999999997 Q 6.153022705078125 0.03149999999999997 6.132022705078125 0.05399999999999994 Q 6.151522705078125 0.05999999999999994 6.168772705078125 0.06599999999999995 Q 6.186022705078125 0.07199999999999995 6.201022705078125 0.0794999999999999 Q 6.210022705078125 0.08399999999999996 6.224272705078125 0.09899999999999998 Q 6.238522705078125 0.11399999999999999 6.238522705078125 0.12149999999999994 Q 6.238522705078125 0.129 6.228022705078125 0.129 Q 6.222022705078125 0.129 6.213022705078125 0.12749999999999995 Q 6.204022705078125 0.126 6.190522705078125 0.12149999999999994 Q 6.154522705078125 0.10949999999999993 6.1020227050781255 0.10499999999999998 Q 6.085522705078125 0.1469999999999999 6.069022705078125 0.2024999999999999 Q 6.052522705078125 0.258 6.038272705078125 0.3135 Q 6.024022705078125 0.369 6.009022705078125 0.417 Q 6.085522705078125 0.3959999999999999 6.129022705078125 0.3959999999999999 Q 6.147022705078125 0.3959999999999999 6.153022705078125 0.40049999999999997 Q 6.159022705078125 0.40499999999999997 6.159022705078125 0.4125 Q 6.159022705078125 0.42599999999999993 6.1485227050781255 0.4215 Q 6.139522705078125 0.4185 6.127522705078125 0.4185 Q 6.106522705078125 0.4185 6.078022705078125 0.4245 Q 6.049522705078125 0.43049999999999994 6.026272705078125 0.44175 Q 6.003022705078125 0.45299999999999996 5.997022705078125 0.46799999999999997 Q 5.937022705078125 0.6315 5.8672727050781255 0.7454999999999999 Q 5.797522705078125 0.8594999999999999 5.725522705078125 0.92925 Q 5.653522705078125 0.999 5.587522705078125 1.0305 Q 5.521522705078125 1.062 5.469022705078125 1.062 M 5.499022705078125 1.02 Q 5.554522705078125 1.02 5.609272705078125 0.97725 Q 5.664022705078125 0.9345 5.713522705078125 0.867 Q 5.763022705078125 0.7995 5.805022705078125 0.723 Q 5.847022705078125 0.6465 5.877022705078125 0.5774999999999999 Q 5.907022705078125 0.5085 5.922022705078125 0.46649999999999997 Q 5.799022705078125 0.5069999999999999 5.694022705078125 0.5745 Q 5.589022705078125 0.6419999999999999 5.506522705078125 0.744 Q 5.461522705078125 0.7995 5.441272705078125 0.84825 Q 5.421022705078125 0.897 5.421022705078125 0.9329999999999999 Q 5.421022705078125 0.9735 5.442022705078125 0.99675 Q 5.463022705078125 1.02 5.499022705078125 1.02 M 6.348019775390625 0.9269999999999999 Q 6.280519775390625 0.9269999999999999 6.231019775390625 0.8955 Q 6.181519775390625 0.864 6.181519775390625 0.7995 Q 6.181519775390625 0.7649999999999999 6.202519775390625 0.7155 Q 6.217519775390625 0.6809999999999999 6.258019775390625 0.6359999999999999 Q 6.298519775390625 0.591 6.352519775390625 0.5482499999999999 Q 6.406519775390625 0.5055 6.462019775390625 0.47774999999999995 Q 6.517519775390625 0.44999999999999996 6.562519775390625 0.44999999999999996 Q 6.579019775390625 0.44999999999999996 6.592519775390625 0.45449999999999996 Q 6.618019775390625 0.46349999999999997 6.627769775390625 0.483 Q 6.637519775390625 0.5025 6.637519775390625 0.5235 Q 6.637519775390625 0.5429999999999999 6.631519775390625 0.5609999999999999 Q 6.625519775390625 0.579 6.616519775390625 0.5925 Q 6.589519775390625 0.633 6.539269775390625 0.6645 Q 6.489019775390625 0.696 6.437269775390625 0.714 Q 6.385519775390625 0.732 6.352519775390625 0.735 L 6.349519775390625 0.735 Q 6.330019775390625 0.735 6.330019775390625 0.723 Q 6.330019775390625 0.7155 6.342019775390625 0.7155 Q 6.378019775390625 0.7124999999999999 6.432769775390625 0.68175 Q 6.487519775390625 0.651 6.529519775390625 0.6179999999999999 Q 6.547519775390625 0.603 6.572269775390625 0.576 Q 6.597019775390625 0.5489999999999999 6.597019775390625 0.5235 Q 6.597019775390625 0.49649999999999994 6.571519775390625 0.49649999999999994 Q 6.558019775390625 0.49649999999999994 6.543769775390625 0.5025 Q 6.529519775390625 0.5085 6.520519775390625 0.5115 Q 6.477019775390625 0.5325 6.424519775390625 0.57675 Q 6.372019775390625 0.621 6.329269775390625 0.67575 Q 6.286519775390625 0.7304999999999999 6.270019775390625 0.7859999999999999 Q 6.265519775390625 0.7979999999999999 6.264019775390625 0.80925 Q 6.262519775390625 0.8205 6.262519775390625 0.831 Q 6.262519775390625 0.867 6.285769775390625 0.882 Q 6.309019775390625 0.897 6.342019775390625 0.897 Q 6.391519775390625 0.897 6.444019775390625 0.87525 Q 6.496519775390625 0.8534999999999999 6.546019775390625 0.819 Q 6.595519775390625 0.7845 6.636769775390625 0.74475 Q 6.678019775390625 0.705 6.706519775390625 0.6675 Q 6.711019775390625 0.6615 6.717019775390625 0.66075 Q 6.723019775390625 0.6599999999999999 6.724519775390625 0.663 Q 6.730519775390625 0.6645 6.730519775390625 0.6712499999999999 Q 6.730519775390625 0.6779999999999999 6.7275197753906255 0.6839999999999999 Q 6.685519775390625 0.7424999999999999 6.626269775390625 0.7979999999999999 Q 6.567019775390625 0.8534999999999999 6.495769775390625 0.89025 Q 6.424519775390625 0.9269999999999999 6.348019775390625 0.9269999999999999 M 7.108474365234375 0.9195 Q 7.082974365234375 0.9195 7.061224365234375 0.9075 Q 7.039474365234375 0.8955 7.028974365234375 0.8624999999999999 Q 7.024474365234375 0.849 7.024474365234375 0.825 Q 7.024474365234375 0.7919999999999999 7.033474365234375 0.7515 Q 7.042474365234375 0.711 7.052974365234375 0.6825 Q 7.045474365234375 0.6855 7.025224365234375 0.70875 Q 7.004974365234375 0.732 6.975724365234375 0.76425 Q 6.946474365234375 0.7965 6.911224365234375 0.82875 Q 6.875974365234375 0.861 6.838474365234375 0.882 Q 6.800974365234375 0.903 6.764974365234375 0.903 Q 6.740974365234375 0.903 6.713974365234375 0.8887499999999999 Q 6.686974365234375 0.8744999999999999 6.670474365234375 0.852 Q 6.647974365234375 0.822 6.647974365234375 0.7905 Q 6.647974365234375 0.75 6.675724365234375 0.7064999999999999 Q 6.703474365234375 0.663 6.747724365234375 0.62175 Q 6.791974365234375 0.5805 6.842224365234375 0.54675 Q 6.892474365234375 0.5129999999999999 6.938224365234375 0.48974999999999996 Q 6.983974365234375 0.46649999999999997 7.012474365234375 0.45899999999999996 Q 7.042474365234375 0.44999999999999996 7.079974365234375 0.44999999999999996 Q 7.100974365234375 0.44999999999999996 7.123474365234375 0.45525 Q 7.145974365234375 0.46049999999999996 7.160974365234375 0.4725 Q 7.172974365234375 0.4785 7.1804743652343745 0.48899999999999993 Q 7.187974365234375 0.49949999999999994 7.187974365234375 0.5115 Q 7.187974365234375 0.5235 7.177474365234375 0.5189999999999999 Q 7.165474365234375 0.5009999999999999 7.145224365234375 0.49574999999999997 Q 7.124974365234375 0.49049999999999994 7.103974365234375 0.49049999999999994 Q 7.043974365234375 0.49049999999999994 6.971974365234375 0.5295 Q 6.899974365234375 0.5685 6.842974365234375 0.621 Q 6.824974365234375 0.6359999999999999 6.794224365234375 0.67275 Q 6.763474365234375 0.7095 6.737974365234375 0.753 Q 6.712474365234375 0.7965 6.712474365234375 0.8325 Q 6.712474365234375 0.852 6.722974365234375 0.867 Q 6.728974365234375 0.8775 6.742474365234375 0.8775 Q 6.763474365234375 0.8775 6.798724365234375 0.855 Q 6.833974365234375 0.8325 6.871474365234375 0.80025 Q 6.908974365234375 0.768 6.939724365234375 0.738 Q 6.9704743652343755 0.708 6.983974365234375 0.6945 Q 6.991474365234375 0.6869999999999999 7.013224365234375 0.66375 Q 7.034974365234375 0.6405 7.060474365234375 0.6134999999999999 Q 7.085974365234375 0.5865 7.106224365234375 0.567 Q 7.126474365234375 0.5475 7.132474365234375 0.5475 Q 7.139974365234375 0.5475 7.157224365234375 0.55125 Q 7.174474365234375 0.5549999999999999 7.186474365234375 0.5625 Q 7.198474365234375 0.57 7.190974365234375 0.582 Q 7.151974365234375 0.639 7.128724365234375 0.7012499999999999 Q 7.105474365234375 0.7635 7.100974365234375 0.7995 Q 7.099474365234375 0.8055 7.099474365234375 0.81075 Q 7.099474365234375 0.816 7.099474365234375 0.822 Q 7.099474365234375 0.882 7.141474365234375 0.882 Q 7.163974365234375 0.882 7.201474365234375 0.855 Q 7.238974365234375 0.828 7.277974365234375 0.7905 Q 7.316974365234375 0.753 7.349224365234375 0.71775 Q 7.381474365234375 0.6825 7.3934743652343755 0.6645 Q 7.397974365234375 0.6599999999999999 7.402474365234375 0.6599999999999999 Q 7.408474365234375 0.6599999999999999 7.412974365234375 0.6652499999999999 Q 7.417474365234375 0.6705 7.412974365234375 0.6779999999999999 Q 7.396474365234375 0.705 7.364974365234375 0.7424999999999999 Q 7.333474365234375 0.78 7.294474365234375 0.8175 Q 7.255474365234375 0.855 7.217974365234375 0.882 Q 7.198474365234375 0.897 7.168474365234375 0.90825 Q 7.138474365234375 0.9195 7.108474365234375 0.9195 M 7.306478759765625 0.9239999999999999 Q 7.295978759765625 0.9239999999999999 7.300478759765625 0.9135 Q 7.304978759765625 0.9045 7.316978759765625 0.87225 Q 7.328978759765625 0.84 7.344728759765625 0.7949999999999999 Q 7.360478759765625 0.75 7.376978759765625 0.702 Q 7.393478759765625 0.6539999999999999 7.407728759765625 0.612 Q 7.421978759765625 0.57 7.430978759765625 0.546 Q 7.433978759765625 0.5369999999999999 7.436978759765625 0.5197499999999999 Q 7.439978759765625 0.5025 7.449728759765625 0.48824999999999996 Q 7.459478759765625 0.474 7.483478759765625 0.474 Q 7.528478759765625 0.474 7.528478759765625 0.49499999999999994 Q 7.528478759765625 0.5025 7.520978759765625 0.5205 Q 7.502978759765625 0.5609999999999999 7.481978759765625 0.6134999999999999 Q 7.460978759765625 0.6659999999999999 7.444478759765625 0.7124999999999999 Q 7.427978759765625 0.759 7.418978759765625 0.7845 Q 7.433978759765625 0.7635 7.467728759765625 0.7244999999999999 Q 7.501478759765625 0.6855 7.543478759765625 0.6405 Q 7.585478759765625 0.5954999999999999 7.631228759765625 0.5534999999999999 Q 7.676978759765625 0.5115 7.716728759765625 0.48524999999999996 Q 7.756478759765625 0.45899999999999996 7.784978759765625 0.45899999999999996 Q 7.820978759765625 0.45899999999999996 7.820978759765625 0.49799999999999994 Q 7.820978759765625 0.5115 7.813478759765625 0.5385 Q 7.799978759765625 0.576 7.778978759765625 0.61125 Q 7.757978759765625 0.6465 7.741478759765625 0.6855 Q 7.712978759765625 0.756 7.708478759765625 0.7995 Q 7.706978759765625 0.8055 7.706978759765625 0.81075 Q 7.706978759765625 0.816 7.706978759765625 0.822 Q 7.706978759765625 0.882 7.747478759765625 0.882 Q 7.769978759765625 0.882 7.807478759765625 0.855 Q 7.844978759765625 0.828 7.8847287597656255 0.7905 Q 7.924478759765625 0.753 7.955978759765625 0.71775 Q 7.987478759765625 0.6825 7.999478759765625 0.6645 Q 8.003978759765625 0.6599999999999999 8.008478759765625 0.6599999999999999 Q 8.014478759765625 0.6599999999999999 8.018228759765625 0.6645 Q 8.021978759765625 0.6689999999999999 8.018978759765625 0.6765 Q 8.005478759765625 0.702 7.973228759765625 0.74025 Q 7.940978759765625 0.7785 7.901978759765625 0.81675 Q 7.862978759765625 0.855 7.825478759765625 0.882 Q 7.802978759765625 0.897 7.769978759765625 0.9089999999999999 Q 7.736978759765625 0.9209999999999999 7.703978759765625 0.9195 Q 7.661978759765625 0.9149999999999999 7.643978759765625 0.89025 Q 7.625978759765625 0.8654999999999999 7.625978759765625 0.831 Q 7.625978759765625 0.7905 7.641728759765625 0.74475 Q 7.657478759765625 0.699 7.676978759765625 0.6585 Q 7.6964787597656255 0.6179999999999999 7.708478759765625 0.597 Q 7.720478759765625 0.573 7.720478759765625 0.5594999999999999 Q 7.720478759765625 0.5475 7.709978759765625 0.5475 Q 7.699478759765625 0.5475 7.678478759765625 0.5609999999999999 Q 7.657478759765625 0.5745 7.621478759765625 0.6074999999999999 Q 7.588478759765625 0.6359999999999999 7.550978759765625 0.68175 Q 7.513478759765625 0.7275 7.478228759765625 0.7755 Q 7.442978759765625 0.8235 7.416728759765625 0.858 Q 7.390478759765625 0.8925 7.379978759765625 0.8985 Q 7.372478759765625 0.903 7.346228759765625 0.9135 Q 7.319978759765625 0.9239999999999999 7.306478759765625 0.9239999999999999 M 8.15696630859375 0.6495 Q 8.12996630859375 0.6495 8.12996630859375 0.6345 Q 8.12996630859375 0.6224999999999999 8.14721630859375 0.609 Q 8.16446630859375 0.5954999999999999 8.17946630859375 0.5954999999999999 Q 8.19596630859375 0.5954999999999999 8.23646630859375 0.5947499999999999 Q 8.27696630859375 0.594 8.32346630859375 0.5932499999999999 Q 8.36996630859375 0.5925 8.39996630859375 0.5925 Q 8.43746630859375 0.5925 8.46071630859375 0.59925 Q 8.48396630859375 0.606 8.48396630859375 0.6134999999999999 Q 8.48396630859375 0.6224999999999999 8.46596630859375 0.627 Q 8.44796630859375 0.6315 8.42846630859375 0.63375 Q 8.40896630859375 0.6359999999999999 8.40146630859375 0.6375 Q 8.36546630859375 0.639 8.31671630859375 0.6419999999999999 Q 8.26796630859375 0.645 8.22371630859375 0.64725 Q 8.17946630859375 0.6495 8.15696630859375 0.6495 M 8.54093115234375 1.02 Q 8.50793115234375 1.02 8.48693115234375 0.999 Q 8.46593115234375 0.978 8.46593115234375 0.9405 Q 8.46593115234375 0.9195 8.47418115234375 0.89325 Q 8.48243115234375 0.867 8.50193115234375 0.837 Q 8.53643115234375 0.7829999999999999 8.59118115234375 0.7162499999999999 Q 8.64593115234375 0.6495 8.70743115234375 0.5834999999999999 Q 8.76893115234375 0.5175 8.82368115234375 0.46274999999999994 Q 8.878431152343751 0.408 8.91143115234375 0.378 Q 8.92643115234375 0.33299999999999996 8.94068115234375 0.2849999999999999 Q 8.95493115234375 0.237 8.96993115234375 0.18599999999999994 Q 8.92793115234375 0.22499999999999998 8.87468115234375 0.24449999999999994 Q 8.82143115234375 0.264 8.77493115234375 0.2669999999999999 L 8.77343115234375 0.2669999999999999 Q 8.75843115234375 0.2669999999999999 8.75843115234375 0.25649999999999995 Q 8.75843115234375 0.24449999999999994 8.77643115234375 0.243 Q 8.81993115234375 0.23849999999999993 8.86643115234375 0.20924999999999994 Q 8.91293115234375 0.17999999999999994 8.95268115234375 0.13424999999999998 Q 8.99243115234375 0.08849999999999991 9.01343115234375 0.03599999999999992 Q 9.01643115234375 0.026999999999999913 9.03368115234375 0.022499999999999964 Q 9.05093115234375 0.017999999999999905 9.07043115234375 0.017999999999999905 Q 9.08693115234375 0.017999999999999905 9.09968115234375 0.021749999999999936 Q 9.11243115234375 0.025499999999999967 9.10943115234375 0.03599999999999992 Q 9.08243115234375 0.10499999999999998 9.05693115234375 0.16874999999999996 Q 9.03143115234375 0.23249999999999993 9.00743115234375 0.2925 Q 9.09593115234375 0.21749999999999992 9.17318115234375 0.16725 Q 9.25043115234375 0.11699999999999999 9.29843115234375 0.11399999999999999 Q 9.38393115234375 0.10949999999999993 9.43268115234375 0.14249999999999996 Q 9.48143115234375 0.1755 9.50168115234375 0.23024999999999995 Q 9.52193115234375 0.2849999999999999 9.52193115234375 0.3464999999999999 Q 9.52193115234375 0.36149999999999993 9.52118115234375 0.375 Q 9.52043115234375 0.38849999999999996 9.51893115234375 0.4019999999999999 Q 9.51143115234375 0.471 9.48893115234375 0.5594999999999999 Q 9.46643115234375 0.6479999999999999 9.440931152343751 0.7244999999999999 Q 9.43793115234375 0.732 9.43193115234375 0.75075 Q 9.42593115234375 0.7695 9.43043115234375 0.7695 Q 9.43193115234375 0.7695 9.44543115234375 0.75 Q 9.48293115234375 0.6885 9.51818115234375 0.62925 Q 9.55343115234375 0.57 9.59393115234375 0.5069999999999999 Q 9.65393115234375 0.414 9.725181152343751 0.3195 Q 9.79643115234375 0.22499999999999998 9.86843115234375 0.1499999999999999 Q 9.89693115234375 0.12 9.92768115234375 0.10499999999999998 Q 9.95843115234375 0.08999999999999997 9.98543115234375 0.08999999999999997 Q 10.01543115234375 0.08999999999999997 10.03568115234375 0.11024999999999996 Q 10.05593115234375 0.13049999999999995 10.05593115234375 0.1725 Q 10.05593115234375 0.18299999999999994 10.05368115234375 0.19574999999999998 Q 10.05143115234375 0.2084999999999999 10.048431152343749 0.22349999999999992 Q 10.03043115234375 0.2955 10.006431152343751 0.3554999999999999 Q 9.98243115234375 0.4155 9.95843115234375 0.47324999999999995 Q 9.93443115234375 0.5309999999999999 9.91568115234375 0.594 Q 9.89693115234375 0.657 9.88943115234375 0.7334999999999999 Q 9.88793115234375 0.747 9.88718115234375 0.759 Q 9.88643115234375 0.7709999999999999 9.88643115234375 0.7815 Q 9.88643115234375 0.8325 9.90143115234375 0.85575 Q 9.91643115234375 0.879 9.94043115234375 0.879 Q 9.96893115234375 0.879 10.00718115234375 0.85425 Q 10.04543115234375 0.8295 10.08443115234375 0.79275 Q 10.12343115234375 0.756 10.15493115234375 0.72075 Q 10.18643115234375 0.6855 10.20143115234375 0.6645 Q 10.20443115234375 0.6599999999999999 10.21043115234375 0.6599999999999999 Q 10.21643115234375 0.6599999999999999 10.22093115234375 0.6645 Q 10.22543115234375 0.6689999999999999 10.22093115234375 0.6765 Q 10.20143115234375 0.7064999999999999 10.16618115234375 0.74625 Q 10.13093115234375 0.7859999999999999 10.09268115234375 0.82275 Q 10.05443115234375 0.8594999999999999 10.02443115234375 0.882 Q 10.00193115234375 0.8985 9.97268115234375 0.9089999999999999 Q 9.94343115234375 0.9195 9.91493115234375 0.9195 Q 9.88193115234375 0.9195 9.85493115234375 0.903 Q 9.82793115234375 0.8865 9.817431152343751 0.846 Q 9.81293115234375 0.831 9.81143115234375 0.8145 Q 9.80993115234375 0.7979999999999999 9.80993115234375 0.78 Q 9.80993115234375 0.717 9.82793115234375 0.63975 Q 9.84593115234375 0.5625 9.87293115234375 0.48524999999999996 Q 9.89993115234375 0.408 9.92468115234375 0.34424999999999994 Q 9.94943115234375 0.28049999999999997 9.96293115234375 0.243 Q 9.97343115234375 0.22199999999999998 9.97343115234375 0.20399999999999996 Q 9.97343115234375 0.1725 9.94643115234375 0.1725 Q 9.92393115234375 0.1725 9.89393115234375 0.19799999999999995 Q 9.85043115234375 0.23549999999999993 9.79868115234375 0.2955 Q 9.74693115234375 0.3554999999999999 9.69368115234375 0.42749999999999994 Q 9.64043115234375 0.49949999999999994 9.59018115234375 0.57525 Q 9.53993115234375 0.651 9.49868115234375 0.72075 Q 9.45743115234375 0.7905 9.43193115234375 0.8445 Q 9.42143115234375 0.867 9.40793115234375 0.867 Q 9.39743115234375 0.867 9.38768115234375 0.8534999999999999 Q 9.37793115234375 0.84 9.37268115234375 0.8242499999999999 Q 9.36743115234375 0.8085 9.37043115234375 0.8025 Q 9.38993115234375 0.7545 9.40643115234375 0.68475 Q 9.42293115234375 0.615 9.43343115234375 0.5362499999999999 Q 9.44393115234375 0.45749999999999996 9.44393115234375 0.38549999999999995 Q 9.44393115234375 0.2895 9.41993115234375 0.22275 Q 9.39593115234375 0.15599999999999992 9.33593115234375 0.15599999999999992 Q 9.29693115234375 0.15599999999999992 9.23693115234375 0.18899999999999995 Q 9.17693115234375 0.22199999999999998 9.10718115234375 0.27749999999999997 Q 9.03743115234375 0.33299999999999996 8.96393115234375 0.40049999999999997 Q 8.95043115234375 0.43349999999999994 8.92418115234375 0.49649999999999994 Q 8.89793115234375 0.5594999999999999 8.86268115234375 0.6359999999999999 Q 8.82743115234375 0.7124999999999999 8.784681152343751 0.78825 Q 8.74193115234375 0.864 8.69693115234375 0.9209999999999999 Q 8.65643115234375 0.972 8.61593115234375 0.996 Q 8.57543115234375 1.02 8.54093115234375 1.02 M 8.54843115234375 0.9675 Q 8.58743115234375 0.9675 8.62868115234375 0.92625 Q 8.66993115234375 0.885 8.71118115234375 0.8212499999999999 Q 8.75243115234375 0.7575 8.78693115234375 0.6885 Q 8.82143115234375 0.6194999999999999 8.84618115234375 0.5609999999999999 Q 8.87093115234375 0.5025 8.88143115234375 0.474 Q 8.83943115234375 0.5145 8.79293115234375 0.56325 Q 8.74643115234375 0.612 8.70218115234375 0.66225 Q 8.65793115234375 0.7124999999999999 8.62193115234375 0.756 Q 8.58593115234375 0.7995 8.56493115234375 0.828 Q 8.54093115234375 0.861 8.52968115234375 0.88725 Q 8.51843115234375 0.9135 8.51843115234375 0.9329999999999999 Q 8.51843115234375 0.9675 8.54843115234375 0.9675 M 10.41888720703125 0.38249999999999995 Q 10.39938720703125 0.38249999999999995 10.37838720703125 0.3787499999999999 Q 10.35738720703125 0.375 10.35738720703125 0.351 Q 10.35738720703125 0.3464999999999999 10.37763720703125 0.32999999999999996 Q 10.39788720703125 0.3135 10.41963720703125 0.29625 Q 10.44138720703125 0.2789999999999999 10.44588720703125 0.2759999999999999 Q 10.47138720703125 0.255 10.47738720703125 0.255 Q 10.48488720703125 0.255 10.47738720703125 0.27449999999999997 Q 10.46988720703125 0.29399999999999993 10.46988720703125 0.30899999999999994 Q 10.46988720703125 0.3165 10.46088720703125 0.3344999999999999 Q 10.45188720703125 0.3524999999999999 10.43988720703125 0.36749999999999994 Q 10.42788720703125 0.38249999999999995 10.41888720703125 0.38249999999999995 M 10.25538720703125 0.9195 Q 10.22838720703125 0.9195 10.20663720703125 0.9075 Q 10.18488720703125 0.8955 10.17438720703125 0.8624999999999999 Q 10.17288720703125 0.858 10.17213720703125 0.8534999999999999 Q 10.17138720703125 0.849 10.17138720703125 0.843 Q 10.17138720703125 0.813 10.18488720703125 0.768 Q 10.19838720703125 0.723 10.21788720703125 0.6809999999999999 Q 10.20888720703125 0.693 10.19688720703125 0.7102499999999999 Q 10.18488720703125 0.7275 10.16238720703125 0.7545 Q 10.15638720703125 0.7605 10.14888720703125 0.7605 Q 10.13838720703125 0.7605 10.13838720703125 0.7484999999999999 Q 10.13838720703125 0.7394999999999999 10.14438720703125 0.7334999999999999 Q 10.18338720703125 0.6839999999999999 10.21413720703125 0.645 Q 10.24488720703125 0.606 10.25988720703125 0.579 Q 10.25988720703125 0.5774999999999999 10.25913720703125 0.57675 Q 10.25838720703125 0.576 10.25838720703125 0.5745 Q 10.25838720703125 0.57 10.26288720703125 0.5609999999999999 Q 10.27488720703125 0.5249999999999999 10.28763720703125 0.50025 Q 10.30038720703125 0.4755 10.31538720703125 0.4725 Q 10.31838720703125 0.4725 10.32138720703125 0.47174999999999995 Q 10.32438720703125 0.471 10.32738720703125 0.471 Q 10.34388720703125 0.471 10.35738720703125 0.4785 Q 10.37088720703125 0.486 10.37088720703125 0.5009999999999999 Q 10.37088720703125 0.5145 10.36113720703125 0.534 Q 10.35138720703125 0.5534999999999999 10.33638720703125 0.582 Q 10.30338720703125 0.651 10.27713720703125 0.7072499999999999 Q 10.25088720703125 0.7635 10.24788720703125 0.7995 Q 10.24638720703125 0.8055 10.24638720703125 0.81075 Q 10.24638720703125 0.816 10.24638720703125 0.822 Q 10.24638720703125 0.882 10.28538720703125 0.882 Q 10.30938720703125 0.882 10.34688720703125 0.85575 Q 10.38438720703125 0.8295 10.42338720703125 0.79125 Q 10.46238720703125 0.753 10.49463720703125 0.71775 Q 10.52688720703125 0.6825 10.53888720703125 0.6645 Q 10.54338720703125 0.6599999999999999 10.54788720703125 0.6599999999999999 Q 10.55388720703125 0.6599999999999999 10.55763720703125 0.6645 Q 10.56138720703125 0.6689999999999999 10.55838720703125 0.6765 Q 10.54488720703125 0.702 10.51263720703125 0.74025 Q 10.48038720703125 0.7785 10.44063720703125 0.81675 Q 10.40088720703125 0.855 10.36338720703125 0.882 Q 10.34388720703125 0.897 10.31463720703125 0.90825 Q 10.28538720703125 0.9195 10.25538720703125 0.9195" fill="url(#gradient-280993ef-75af-453b-a05d-8ce48c0f4727)" fill-rule="nonzero"></path></g><g></g></g><defs><clipPath id="SvgjsClipPath55440"><path d=" M 0.7007478945092585 -4.008198608261193 h 9.059411193403358 v 3.758198608261193 h -9.059411193403358 Z"></path></clipPath><clipPath id="SvgjsClipPath554357fab9eb3-e70c-49bc-b2b6-531e61e2ec6b"><path d=" M 0.7007478945092585 -4.008198608261193 L 9.760159087912616 -4.008198608261193 L 9.760159087912616 -0.24999999999999956 L 0.7007478945092585 -0.24999999999999956 Z"></path></clipPath><linearGradient id="gradient-280993ef-75af-453b-a05d-8ce48c0f4727" x1="0" y1="0" x2="0" y2="1"><stop stop-color="#000000" offset="0"></stop><stop stop-color="#cf9645" offset="1"></stop></linearGradient></defs></svg>