<svg xmlns="http://www.w3.org/2000/svg" version="1.1" xmlns:xlink="http://www.w3.org/1999/xlink" viewBox="0 0 22.497983622156628 4.2538075439389935"><g transform="matrix(0.6561355125666276,0,0,0.6561355125666276,4.599495478627045,1.6463621342518648)"><g transform="matrix(1,0,0,1,0,0)" clip-path="url(#SvgjsClipPath167937)"><g clip-path="url(#SvgjsClipPath167932d69ff4ce-1706-4854-9a2a-a763a17317e3)"><path d=" M 15.729530915283204 0.7643813985230934 C 15.74384795144613 0.7441254436555484 15.760179977883835 0.7251421142247076 15.77725436915962 0.7070072017516698 C 15.79443481255513 0.688872289278632 15.812675777147893 0.671585793763397 15.831553054459008 0.655147715205965 C 15.869625765440414 0.6223776102108264 15.910880040013582 0.5926830166877235 15.95489166969961 0.5672305079536353 C 15.998797247265912 0.5414598428603709 16.045460179945074 0.5200373146758467 16.093925998659568 0.5026447670408863 C 16.14239181737406 0.4852522194059261 16.192872626363336 0.4728441213980582 16.24409580019069 0.46446600393975424 C 16.269760413164228 0.4603299712704648 16.295637130377216 0.4576786682773306 16.32161989970993 0.4559818343617248 C 16.347602669042647 0.4541789483263936 16.373691490495087 0.4536486877277668 16.399780311947527 0.4541789483263936 C 16.412824722673747 0.45428500044611897 16.425869133399967 0.45492131316447104 16.438913544126187 0.4556636780025487 C 16.45185190273268 0.4566181470800771 16.4648963134589 0.45757261615760536 16.4778346720654 0.4589512937140352 C 16.49087908279162 0.4601178670310141 16.503711389278386 0.46202680518607087 16.51664974788488 0.4636175869819513 C 16.529482054371652 0.46563257725673324 16.542420412978146 0.46743546329206453 16.555252719464917 0.469874662045748 L 16.574448153135208 0.473374381996685 L 16.593537534685773 0.4774043625462491 C 16.606369841172544 0.4799496134196578 16.618883991300137 0.4832372291311442 16.63161024566718 0.48631274060317986 C 16.644124395794773 0.4898124605541171 16.656744598042092 0.49288797202615287 16.669258748169685 0.49670584833626596 L 16.70552857311576 0.5075231645482533 C 16.75176729731602 0.5217341485914526 16.798430229995184 0.5340361944795952 16.84498711055462 0.5465503446071887 C 16.891756095353507 0.5584281820164299 16.938525080152395 0.5698818109467696 16.985718273430184 0.5796386059615035 C 17.009261844009213 0.5847291077083212 17.032805414588246 0.5893954009762372 17.056348985167276 0.5940616942441534 C 17.068120770456794 0.5965008929978368 17.079998607866035 0.5984098311528934 17.09177039315555 0.6006369256671262 C 17.10364823056479 0.6027579680616336 17.115420015854305 0.6050911146955917 17.12729785326355 0.6068940007309229 C 17.222108448298027 0.622483662330552 17.317237199691682 0.6351038645778707 17.412684107444512 0.6421033044797451 C 17.460407561320928 0.6458151286701328 17.508024963077617 0.6481482753040909 17.55606657331321 0.6498451092196968 C 17.604956600506604 0.6512237867761266 17.653952679819724 0.6529206206917326 17.70284270701312 0.6539811418889862 C 17.800622761399907 0.6564203406426697 17.898402815786696 0.6580111224385501 17.99607681805376 0.6583292787977263 C 18.191424822587884 0.6591776957555292 18.386454670762838 0.6561021842834937 18.580317945620806 0.6448606595926046 C 18.67735563516952 0.6396641057260617 18.772590438682897 0.6310738840283068 18.865704199801772 0.6168628999851075 C 18.91226108036121 0.6094392516043318 18.95818164820229 0.6001066650684995 19.003890111803926 0.588759088257885 C 19.026797369664607 0.5833504301518911 19.049492523285835 0.5769873029683692 19.072293729026786 0.5707302279045724 L 19.10633645945863 0.560443172291212 C 19.117684036269246 0.5570495044600002 19.128925560960134 0.5531255760301617 19.14027313777075 0.549519803959499 L 19.157241476926806 0.5438990416140546 L 19.17410376396314 0.5379601229094341 L 19.19096605099947 0.5320212042048132 C 19.196586813344915 0.5301122660497566 19.202313627810085 0.5280972757749747 19.207934390155533 0.5259762333804674 L 19.241765016347923 0.5135681353725994 L 19.25989992882096 0.506780799710176 C 19.266157003884757 0.5044476530762178 19.272414078948554 0.5023266106817104 19.278565101892625 0.500205568287203 C 19.328515650283272 0.4832372291311443 19.379102511392276 0.4699807141654734 19.430431737339354 0.46086023186909186 C 19.481654911166704 0.4517397495727101 19.53351439771241 0.4459068829878151 19.585373884258114 0.44431610119193443 C 19.63723337080382 0.44283137151577934 19.689198909469248 0.44516451814973734 19.740528135416326 0.45163369745298476 C 19.791857361363405 0.4584210331154084 19.84255027459213 0.46923834932739583 19.891546353905248 0.48461590668757415 C 19.94054243321837 0.5000995161674777 19.98815983497506 0.5196131061969455 20.03301988161889 0.5435808852548785 C 20.123058131265726 0.5910922348918431 20.202809325299203 0.6548295588467888 20.26866769164866 0.7287478862953702 C 20.18912860185463 0.6696768556083407 20.103226384877082 0.6217412974924744 20.012763926751347 0.5897135573354134 C 19.967479671628613 0.5739117914963336 19.921346999548078 0.5615036934884656 19.874684066868916 0.5534437323893376 C 19.828021134189754 0.5452777191704844 19.78093399303169 0.5407174780222936 19.733952903993355 0.5402932695433922 C 19.686971814955015 0.53965695682504 19.640096778036405 0.5423082598181741 19.593752001716418 0.5487774391214215 C 19.547407225396434 0.5550345141852183 19.50148665755535 0.5642610486013252 19.456626610911517 0.5767751987289185 C 19.411766564267687 0.5893954009762372 19.367648882461936 0.6044548019772393 19.325546190930964 0.6226957665700027 L 19.309850477211608 0.629695206471877 L 19.29383660713308 0.6371188548526528 L 19.259369668222334 0.6530266728114579 C 19.247916039291994 0.6584353309174518 19.23614425400248 0.663207676305093 19.22447852083269 0.6682981780519107 L 19.206979921078002 0.6758278785524118 L 19.189269217083865 0.6829333705740115 C 19.177391379674624 0.6875996638419275 19.16561959438511 0.6925841134690199 19.153635704856143 0.6970383024974852 L 19.11757798414952 0.7105069217026069 C 19.09329204873241 0.7189910912806363 19.0690061133153 0.7274752608586657 19.044402021539014 0.7350049613591667 C 18.99508778586672 0.750064362360169 18.94492513323662 0.7628966688469385 18.89455037636707 0.7735018808194754 C 18.84417561949752 0.7843191970314627 18.79358875838852 0.7924852102503159 18.74321400151897 0.7990604416732887 C 18.69283924464942 0.8057417252159869 18.642676592019324 0.8111503833219806 18.592938147868125 0.8156045723504459 C 18.39345411066471 0.8337394848234838 18.193970073461294 0.8394662992886537 17.995016296856505 0.8385118302111254 C 17.945277852705306 0.8381936738519491 17.895539408554107 0.8374513090138718 17.845907016522638 0.8363907878166179 C 17.796274624491165 0.8350121102601884 17.746536180339966 0.8337394848234838 17.697009840428223 0.8316184424289765 C 17.64737744839675 0.8296034521541944 17.597851108485003 0.8272703055202364 17.54821871645353 0.8244068982876513 C 17.497737907464256 0.8213313868156156 17.446938942115803 0.8177256147449534 17.396564185246255 0.8116806439206072 C 17.34608337625698 0.8062719858146135 17.29592072362688 0.7990604416732885 17.245864123116508 0.7910004805741606 L 17.208427724853454 0.7846373533906386 C 17.19591357472586 0.7826223631158566 17.183505476717993 0.779865008002997 17.171097378710122 0.777531861369039 C 17.14617513057466 0.7728655681011227 17.121464986678653 0.7674569099951289 17.09675484278264 0.7621543040088605 C 16.9979142671986 0.740625723704611 16.90055842129071 0.7132642768154662 16.804793357178703 0.6816607451373067 C 16.780931630240495 0.6734947319184534 16.756963851182565 0.6657529271785014 16.733420280603532 0.6568445491215706 L 16.69799887261526 0.6438001383953504 L 16.662789568866437 0.6302254670705033 L 16.62906499479377 0.6172871084640085 C 16.61824767858178 0.6129389715552684 16.60711220601062 0.609333199484606 16.596188837678906 0.6054092710547672 C 16.57412999677603 0.5980916747937169 16.551965103753428 0.5906680264129411 16.529482054371652 0.5847291077083205 C 16.43976196108399 0.5602310680517607 16.34654214784539 0.547929022163618 16.25300417824762 0.551959002713182 C 16.159466208649842 0.5558829311430206 16.065822186932344 0.5761388860105657 15.976844458482761 0.6119845024777398 C 15.932408620317831 0.6300133628310526 15.889033303350157 0.6516479952550275 15.847460872417813 0.6769944518693902 C 15.826568604831914 0.6896146541167089 15.806418702084095 0.7032953775612814 15.786586955695451 0.7177184658439314 C 15.776724108560993 0.7249300099852565 15.766967313546258 0.7324597104857575 15.757422622770974 0.7402015152257093 C 15.747877931995692 0.7478372678459362 15.738439293340136 0.7557911768253387 15.729530915283204 0.7643813985230934 Z" fill="#d3b39f" transform="matrix(1,0,0,1,0,0)" fill-rule="nonzero"></path></g><g clip-path="url(#SvgjsClipPath167932d69ff4ce-1706-4854-9a2a-a763a17317e3)"><path d=" M 16.93767666319459 1.236843591899606 C 17.026654391644175 1.2433127712028533 17.11425344253733 1.2505243153441783 17.20164038919103 1.2548724522529182 C 17.288921283725006 1.2593266412813835 17.375565865540633 1.2619779442745178 17.46189229099708 1.2616597879153415 C 17.50516155584503 1.2616597879153415 17.547582403735177 1.2607053188378132 17.591700085540932 1.2598569018800105 L 17.72288655764121 1.2574177031263272 L 17.98462318912342 1.253069566217587 C 18.1588668218322 1.2501001068652768 18.33258019394235 1.2467064390340652 18.50565725333415 1.2399191033716415 L 18.538109201970112 1.2385404258152117 C 18.5489265181821 1.2380101652165847 18.559743834394087 1.2375859567376832 18.570561150606075 1.2375859567376832 C 18.581378466818062 1.237479904617958 18.592301835149776 1.2373738524982327 18.60311915136176 1.2373738524982327 C 18.61393646757375 1.2372678003785071 18.624753783785735 1.2373738524982327 18.635571099997726 1.2374799046179579 C 18.678840364845673 1.237798060977134 18.721897525454175 1.2384343736954861 18.765166790302125 1.2397069991321905 C 18.808436055150075 1.240979624568895 18.851811372117748 1.2422522500055997 18.895929053923503 1.2440551360409307 C 18.940046735729254 1.2458580220762618 18.984800730253358 1.2472366996326918 19.031675767171972 1.251372732301981 C 18.99392121254974 1.2794765440292033 18.9531971985752 1.3013232806926291 18.911200559163955 1.32030661012347 C 18.86920391975271 1.3393959916740361 18.825722550665308 1.3545614447947634 18.781816973099005 1.3670755949223568 C 18.737911395532706 1.3796957971696757 18.693581609487502 1.3893465400646838 18.64935787556202 1.3971943969243612 C 18.63822240299086 1.3992093871991433 18.62719298253942 1.4010122732344745 18.616163562087984 1.4027091071500803 C 18.605028089516818 1.4045119931854115 18.593998669065382 1.4059967228615668 18.582969248613942 1.407481452537722 C 18.571939828162503 1.4091782864533278 18.56080435559134 1.410132755530856 18.54966888302018 1.4110872246083845 L 18.51636851742641 1.4139506318409696 C 18.338625164766697 1.4285858243630702 18.160775759987253 1.4318734400745567 17.98345661580644 1.426782938327739 C 17.894797043716032 1.4242376874543299 17.806349575865077 1.4194653420666885 17.71811421225357 1.4125719542845396 C 17.673996530447816 1.4090722343336024 17.629878848642065 1.4051483059037644 17.585867218956036 1.400588064755573 C 17.542173745629185 1.3962399278468332 17.496889490506454 1.3908312697408396 17.45255970446125 1.3841499861981412 C 17.363581976011666 1.370787419112745 17.275664768759338 1.3515919854424534 17.189550447542338 1.327518154264795 C 17.103330074205616 1.303232218847686 17.01891258690422 1.2737497295640337 16.93767666319459 1.236843591899606 Z" fill="#806319" transform="matrix(1,0,0,1,0,0)" fill-rule="nonzero"></path></g><g clip-path="url(#SvgjsClipPath167932d69ff4ce-1706-4854-9a2a-a763a17317e3)"><path d=" M 19.75855699576964 1.6031476134310252 C 19.51018293137283 1.6031476134310252 19.30804759117628 1.4010122732344745 19.30804759117628 1.152638208837664 C 19.30804759117628 0.9042641444408535 19.51018293137283 0.7021288042443031 19.75855699576964 0.7021288042443031 C 20.00693106016645 0.7021288042443031 20.209066400363 0.9042641444408535 20.209066400363 1.152638208837664 C 20.209066400363 1.4010122732344745 20.00693106016645 1.6031476134310252 19.75855699576964 1.6031476134310252 Z M 19.75855699576964 0.8823113556577022 C 19.609447715435774 0.8823113556577022 19.48823014258968 1.0036349806235227 19.48823014258968 1.152638208837664 C 19.48823014258968 1.3016414370518055 19.6095537675555 1.422965062017626 19.75855699576964 1.422965062017626 C 19.907666276103505 1.422965062017626 20.028883848949604 1.3016414370518055 20.028883848949604 1.152638208837664 C 20.028883848949604 1.0036349806235227 19.907666276103505 0.8823113556577022 19.75855699576964 0.8823113556577022 Z" fill="#595959" transform="matrix(1,0,0,1,0,0)" fill-rule="nonzero"></path></g><g clip-path="url(#SvgjsClipPath167932d69ff4ce-1706-4854-9a2a-a763a17317e3)"><path d=" M 16.2767598530661 1.6031476134310252 C 16.02838578866929 1.6031476134310252 15.82625044847274 1.4010122732344745 15.82625044847274 1.152638208837664 C 15.82625044847274 0.9042641444408535 16.02838578866929 0.7021288042443031 16.2767598530661 0.7021288042443031 C 16.52513391746291 0.7021288042443031 16.72726925765946 0.9042641444408535 16.72726925765946 1.152638208837664 C 16.72726925765946 1.4010122732344745 16.52513391746291 1.6031476134310252 16.2767598530661 1.6031476134310252 Z M 16.2767598530661 0.8823113556577022 C 16.127650572732232 0.8823113556577022 16.00643299988614 1.0036349806235227 16.00643299988614 1.152638208837664 C 16.00643299988614 1.3016414370518055 16.12775662485196 1.422965062017626 16.2767598530661 1.422965062017626 C 16.425869133399967 1.422965062017626 16.547086706246063 1.3016414370518055 16.547086706246063 1.152638208837664 C 16.547086706246063 1.0036349806235227 16.425869133399967 0.8823113556577022 16.2767598530661 0.8823113556577022 Z" fill="#595959" transform="matrix(1,0,0,1,0,0)" fill-rule="nonzero"></path></g><g clip-path="url(#SvgjsClipPath167932d69ff4ce-1706-4854-9a2a-a763a17317e3)"><path d=" M 19.23837134851671 0.2871468597589397 C 19.238477400636437 0.2872529118786652 19.237841087918085 0.2866165991603129 19.237416879439184 0.28619239068141133 L 19.235826097643304 0.2848137131249817 L 19.232326377692367 0.28173820165294594 L 19.22490272931159 0.2753750744694239 C 19.219812227564773 0.2711329896804092 19.214509621578507 0.2667848527716692 19.209207015592238 0.2625427679826545 C 19.198495751499976 0.2540585984046252 19.187466331048537 0.24557442882659575 19.17622480635765 0.23719631136829178 C 19.15374175697587 0.22054612857140898 19.13062239487574 0.20442620637315317 19.106972772176984 0.18873049265379876 C 19.083323149478225 0.1730347789344444 19.05924931830057 0.15786932581371682 19.03485733076373 0.1432341332916161 C 19.01035929110717 0.1285989407695154 18.985649147211163 0.11428190460659088 18.960408742716524 0.10070723328174375 C 18.859871333216876 0.04587828738372873 18.75445552620986 -0.001208853774334273 18.64596420773081 -0.04097839867134717 C 18.428875518652983 -0.12030538422592205 18.199590835806738 -0.16919541141931643 17.96680643300956 -0.1891332099276855 C 17.73391597809265 -0.2090710084360546 17.497737907464256 -0.19942026554104614 17.26442324406845 -0.16580174358810468 C 17.03110858067264 -0.13154690891681098 16.80055127238969 -0.07343034730730957 16.576038934931088 0.0035634916133072125 C 16.795248666403424 -0.08742922711105808 17.022730463214337 -0.16060518972156168 17.25657538720877 -0.21013152963330828 C 17.49031425908348 -0.25912760894642806 17.73052231026144 -0.28447406556079086 17.9715787783972 -0.2791714595745225 C 18.212529194413236 -0.27386885358825414 18.454434079506797 -0.23844744559998138 18.688172951381507 -0.1694075156587671 C 18.805042387318863 -0.13472847250857198 18.919896832981436 -0.09209552037897423 19.03125155869307 -0.04012998171354418 C 19.059143266180843 -0.027191623107049367 19.086716817309437 -0.013616951782202236 19.114078264198582 0.000487980141271549 C 19.141439711087727 0.0145929120647455 19.16858905373742 0.029334156706571524 19.195526292147665 0.04481776618647515 C 19.222357478438184 0.06030137566637883 19.24897656048925 0.0764212978646347 19.275383538300865 0.09349568914041878 C 19.28853400114681 0.10208591083817353 19.301684463992757 0.1107821846556537 19.314834926838703 0.11990266695203539 C 19.321410158261678 0.12446290810022614 19.32798538968465 0.12912920136814232 19.33456062110762 0.13400759887550917 L 19.344529520361807 0.14143124725628498 L 19.34972607422835 0.1453551756861235 L 19.35248342934121 0.14747621808063094 L 19.355771045052695 0.15012752107376515 L 19.23837134851671 0.2871468597589397 Z" fill="#806319" transform="matrix(1,0,0,1,0,0)" fill-rule="nonzero"></path></g></g><g><path d=" M 0.31161900000000003 1.505427 Q 0.23920050000000004 1.505427 0.17336550000000003 1.4812875 Q 0.10753050000000001 1.457148 0.065835 1.40448 Q 0.0241395 1.351812 0.0241395 1.2706155000000001 Q 0.0241395 1.2508650000000001 0.03401475 1.2344062500000001 Q 0.043890000000000005 1.2179475 0.052668000000000006 1.2179475 Q 0.07022400000000001 1.2179475 0.07022400000000001 1.2706155000000001 Q 0.07022400000000001 1.3452285000000002 0.13386450000000003 1.386924 Q 0.18433800000000003 1.4198415 0.26992350000000004 1.4198415 Q 0.355509 1.4198415 0.4476780000000001 1.3891185000000001 Q 0.5398470000000001 1.3583955 0.6232380000000001 1.3013385 Q 0.7219905000000001 1.2355035 0.8437852500000002 1.11151425 Q 0.9655800000000001 0.987525 1.09725 0.8404935 Q 0.9919140000000001 0.829521 0.8876752500000001 0.816354 Q 0.7834365000000001 0.803187 0.6781005000000001 0.803187 Q 0.6078765 0.803187 0.5376525000000001 0.81745125 Q 0.4674285000000001 0.8317155 0.41037150000000006 0.8712165000000001 Q 0.35331450000000003 0.9107175000000001 0.324786 0.987525 Q 0.32259150000000003 0.9963029999999999 0.31929975000000005 1.0072755 Q 0.31600800000000007 1.018248 0.31600800000000007 1.0292205 Q 0.31600800000000007 1.0511655 0.32698050000000006 1.0687215 Q 0.33136950000000004 1.0818885 0.33136950000000004 1.0840830000000001 Q 0.33136950000000004 1.1038335 0.3138135 1.1038335 Q 0.29845200000000005 1.1038335 0.28967400000000004 1.088472 Q 0.26772900000000005 1.048971 0.26772900000000005 0.987525 Q 0.26772900000000005 0.8712165000000001 0.31052175000000004 0.8097705 Q 0.35331450000000003 0.7483245 0.42573300000000003 0.7263795 Q 0.4981515000000001 0.7044345 0.5815425000000001 0.7044345 Q 0.6188490000000001 0.7044345 0.65944725 0.70772625 Q 0.7000455000000001 0.7110179999999999 0.7395465000000001 0.715407 Q 0.8361045000000001 0.724185 0.9392460000000001 0.74503275 Q 1.0423875 0.7658805 1.1455290000000002 0.7878255 Q 1.259643 0.653961 1.37046525 0.517902 Q 1.4812875 0.38184299999999993 1.5778455000000002 0.26004824999999987 Q 1.6744035000000002 0.1382534999999998 1.7424330000000001 0.05047349999999984 Q 1.7446275000000002 0.043889999999999985 1.7512110000000003 0.041695499999999885 Q 1.7556000000000003 0.03730649999999991 1.7577945000000001 0.03730649999999991 Q 1.7819340000000001 0.02413949999999998 1.8192405000000003 0.014264249999999867 Q 1.8565470000000002 0.004388999999999976 1.8697140000000003 0.004388999999999976 Q 1.8916590000000002 0.004388999999999976 1.8916590000000002 0.028528499999999957 Q 1.8916590000000002 0.03511199999999981 1.8806865000000001 0.05266799999999994 Q 1.7709615000000003 0.23920049999999993 1.6930567500000002 0.434511 Q 1.6151520000000001 0.6298214999999999 1.5559005000000001 0.8361045 L 1.5515115000000002 0.8514660000000001 Q 1.5646785 0.8514660000000001 1.5789427500000002 0.85256325 Q 1.5932070000000003 0.8536604999999999 1.6041795 0.8536604999999999 Q 1.6985430000000001 0.860244 1.7643780000000002 0.8339099999999999 Q 1.8126570000000002 0.816354 1.8302130000000003 0.7834365 Q 1.8367965000000002 0.7746585 1.8411855000000001 0.7746585 Q 1.8521580000000002 0.7746585 1.8565470000000002 0.78672825 Q 1.8609360000000001 0.798798 1.8543525000000003 0.8097705 Q 1.8302130000000003 0.8514660000000001 1.7687670000000002 0.8712165000000001 Q 1.7336550000000002 0.886578 1.6886677500000002 0.8909670000000001 Q 1.6436805 0.895356 1.5954015000000001 0.8931614999999999 L 1.5822345000000002 0.8931614999999999 L 1.5559005000000001 0.8909670000000001 L 1.5427335000000002 0.8909670000000001 Q 1.5098160000000003 1.0116645 1.4966490000000001 1.14114 Q 1.4944545000000002 1.1521125 1.4944545000000002 1.16198775 Q 1.4944545000000002 1.171863 1.4944545000000002 1.1828355 Q 1.4944545000000002 1.307922 1.5624840000000002 1.307922 Q 1.6063740000000002 1.307922 1.6667227500000001 1.268421 Q 1.7270715000000003 1.22892 1.7896147500000001 1.171863 Q 1.8521580000000002 1.114806 1.9026315000000003 1.05884625 Q 1.9531050000000003 1.0028865 1.9772445000000003 0.9699690000000001 Q 1.9816335000000003 0.96558 1.9904115000000002 0.96558 Q 2.0123565 0.96558 2.0035785 0.9897195000000001 Q 1.9991895000000002 0.9963029999999999 1.9662720000000002 1.04129025 Q 1.9333545000000003 1.0862775 1.8762975000000002 1.14882075 Q 1.8192405000000003 1.211364 1.7424330000000001 1.27281 Q 1.6809870000000002 1.321089 1.6206382500000003 1.33535325 Q 1.5602895 1.3496175000000001 1.5295665000000003 1.3496175000000001 Q 1.4681205000000002 1.3496175000000001 1.4319112500000002 1.2936577500000002 Q 1.3957020000000002 1.237698 1.3957020000000002 1.149918 Q 1.3957020000000002 1.0862775 1.4088690000000001 1.018248 Q 1.422036 0.9502185000000001 1.4395920000000002 0.882189 Q 1.3759515000000002 0.8756055 1.3101165000000001 0.86792475 Q 1.2442815000000003 0.860244 1.1784465000000002 0.8514660000000001 Q 1.0467765000000002 1.0116645 0.9162037500000001 1.15101525 Q 0.7856310000000001 1.2903660000000001 0.671517 1.3759515 Q 0.5859315 1.4373975 0.49485975000000004 1.4714122500000002 Q 0.40378800000000004 1.505427 0.31161900000000003 1.505427 M 1.4483700000000002 0.8404935 Q 1.4878710000000002 0.6868785 1.5416362500000003 0.53216625 Q 1.5954015000000001 0.37745399999999996 1.6480695000000003 0.250173 L 1.6590420000000001 0.2238389999999999 Q 1.5646785 0.35550899999999996 1.4516617500000002 0.5047349999999999 Q 1.338645 0.653961 1.2223365000000002 0.8009925 Q 1.2793935 0.811965 1.3364505000000002 0.82184025 Q 1.3935075000000001 0.8317155 1.4483700000000002 0.8404935 M 2.091325282470703 1.3452285000000002 Q 1.9991562824707032 1.3452285000000002 1.9629470324707032 1.299144 Q 1.9267377824707033 1.2530595 1.9267377824707033 1.18503 Q 1.9267377824707033 1.1213895 1.9563635324707034 1.0248315 Q 1.9859892824707033 0.9282735 2.0342682824707032 0.816354 Q 2.082547282470703 0.7044345 2.138507032470703 0.59361225 Q 2.194466782470703 0.48278999999999994 2.250426532470703 0.38952374999999995 Q 2.3063862824707035 0.29625749999999984 2.3480817824707034 0.23920049999999993 Q 2.3897772824707033 0.1843379999999999 2.4380562824707033 0.12947549999999985 Q 2.4863352824707032 0.07461299999999982 2.5455867824707035 0.03730649999999991 Q 2.6048382824707033 0 2.6794512824707035 0 Q 2.7299247824707034 0 2.7661340324707036 0.027431249999999796 Q 2.8023432824707033 0.054862499999999814 2.8023432824707033 0.10972499999999985 Q 2.8023432824707033 0.13166999999999995 2.7946625324707033 0.1601984999999999 Q 2.7869817824707033 0.18872699999999987 2.7694257824707034 0.21944999999999992 Q 2.6355612824707033 0.452067 2.4501260324707035 0.6495719999999999 Q 2.264690782470703 0.8470770000000001 2.058407782470703 1.0160535 Q 2.0496297824707033 1.048971 2.0419490324707033 1.075305 Q 2.0342682824707032 1.101639 2.0298792824707035 1.1170005 Q 2.027684782470703 1.1279730000000001 2.027684782470703 1.14004275 Q 2.027684782470703 1.1521125 2.027684782470703 1.1630850000000001 Q 2.027684782470703 1.215753 2.045240782470703 1.255254 Q 2.0627967824707034 1.294755 2.1044922824707033 1.294755 Q 2.1439932824707033 1.294755 2.202147532470703 1.25635125 Q 2.2603017824707035 1.2179475 2.3195532824707032 1.16198775 Q 2.3788047824707035 1.106028 2.4270837824707034 1.05336 Q 2.4753627824707034 1.000692 2.4951132824707036 0.9721635 Q 2.5016967824707033 0.96558 2.5082802824707033 0.96558 Q 2.5170582824707033 0.96558 2.5225445324707034 0.9743580000000001 Q 2.5280307824707036 0.983136 2.5214472824707035 0.9963029999999999 Q 2.4995022824707034 1.0336095 2.4512232824707034 1.088472 Q 2.4029442824707035 1.1433345 2.3436927824707032 1.1992942500000001 Q 2.2844412824707034 1.255254 2.2295787824707034 1.2969495 Q 2.161549282470703 1.3452285000000002 2.091325282470703 1.3452285000000002 M 2.0891307824707033 0.9282735 Q 2.1725217824707035 0.8712165000000001 2.2624962824707033 0.7801447499999999 Q 2.352470782470703 0.6890729999999999 2.439153532470703 0.5815425 Q 2.5258362824707032 0.474012 2.5971575324707032 0.3686759999999999 Q 2.6684787824707032 0.2633399999999999 2.7123687824707035 0.17775449999999982 Q 2.725535782470703 0.15361499999999984 2.7310220324707033 0.13496175 Q 2.7365082824707034 0.11630849999999993 2.7365082824707034 0.1009469999999999 Q 2.7365082824707034 0.05925149999999979 2.7013962824707036 0.05925149999999979 Q 2.6706732824707036 0.05925149999999979 2.6245887824707035 0.09216899999999995 Q 2.5060857824707035 0.1843379999999999 2.4051387824707033 0.32807774999999995 Q 2.304191782470703 0.4718175 2.225189782470703 0.6298214999999999 Q 2.146187782470703 0.7878255 2.0891307824707033 0.9282735 M 2.60924657006836 1.3452285000000002 Q 2.5170775700683596 1.3452285000000002 2.48086832006836 1.299144 Q 2.4446590700683597 1.2530595 2.4446590700683597 1.18503 Q 2.4446590700683597 1.1213895 2.47428482006836 1.0248315 Q 2.50391057006836 0.9282735 2.55218957006836 0.816354 Q 2.60046857006836 0.7044345 2.65642832006836 0.59361225 Q 2.71238807006836 0.48278999999999994 2.7683478200683598 0.38952374999999995 Q 2.8243075700683598 0.29625749999999984 2.8660030700683596 0.23920049999999993 Q 2.9076985700683595 0.1843379999999999 2.95597757006836 0.12947549999999985 Q 3.00425657006836 0.07461299999999982 3.0635080700683597 0.03730649999999991 Q 3.12275957006836 0 3.1973725700683597 0 Q 3.24784607006836 0 3.2840553200683598 0.027431249999999796 Q 3.32026457006836 0.054862499999999814 3.32026457006836 0.10972499999999985 Q 3.32026457006836 0.13166999999999995 3.31258382006836 0.1601984999999999 Q 3.30490307006836 0.18872699999999987 3.2873470700683596 0.21944999999999992 Q 3.15348257006836 0.452067 2.9680473200683597 0.6495719999999999 Q 2.78261207006836 0.8470770000000001 2.57632907006836 1.0160535 Q 2.56755107006836 1.048971 2.55987032006836 1.075305 Q 2.55218957006836 1.101639 2.5478005700683597 1.1170005 Q 2.54560607006836 1.1279730000000001 2.54560607006836 1.14004275 Q 2.54560607006836 1.1521125 2.54560607006836 1.1630850000000001 Q 2.54560607006836 1.215753 2.5631620700683597 1.255254 Q 2.5807180700683596 1.294755 2.6224135700683595 1.294755 Q 2.66191457006836 1.294755 2.72006882006836 1.25635125 Q 2.7782230700683597 1.2179475 2.83747457006836 1.16198775 Q 2.8967260700683597 1.106028 2.9450050700683597 1.05336 Q 2.99328407006836 1.000692 3.01303457006836 0.9721635 Q 3.01961807006836 0.96558 3.02620157006836 0.96558 Q 3.03497957006836 0.96558 3.0404658200683596 0.9743580000000001 Q 3.0459520700683598 0.983136 3.0393685700683597 0.9963029999999999 Q 3.0174235700683596 1.0336095 2.9691445700683596 1.088472 Q 2.9208655700683597 1.1433345 2.86161407006836 1.1992942500000001 Q 2.8023625700683596 1.255254 2.7475000700683596 1.2969495 Q 2.67947057006836 1.3452285000000002 2.60924657006836 1.3452285000000002 M 2.60705207006836 0.9282735 Q 2.6904430700683597 0.8712165000000001 2.7804175700683595 0.7801447499999999 Q 2.87039207006836 0.6890729999999999 2.95707482006836 0.5815425 Q 3.04375757006836 0.474012 3.11507882006836 0.3686759999999999 Q 3.18640007006836 0.2633399999999999 3.2302900700683597 0.17775449999999982 Q 3.24345707006836 0.15361499999999984 3.24894332006836 0.13496175 Q 3.2544295700683596 0.11630849999999993 3.2544295700683596 0.1009469999999999 Q 3.2544295700683596 0.05925149999999979 3.21931757006836 0.05925149999999979 Q 3.18859457006836 0.05925149999999979 3.1425100700683597 0.09216899999999995 Q 3.0240070700683597 0.1843379999999999 2.9230600700683596 0.32807774999999995 Q 2.82211307006836 0.4718175 2.74311107006836 0.6298214999999999 Q 2.66410907006836 0.7878255 2.60705207006836 0.9282735 M 3.585818357666016 0.27431249999999996 Q 3.603374357666016 0.27431249999999996 3.624222107666016 0.3149107499999999 Q 3.645069857666016 0.35550899999999996 3.662625857666016 0.4037879999999999 Q 3.680181857666016 0.452067 3.688959857666016 0.474012 Q 3.693348857666016 0.4937625 3.6944461076660158 0.5025405 Q 3.695543357666016 0.5113185 3.695543357666016 0.5200965 Q 3.693348857666016 0.5420415 3.675792857666016 0.5464304999999999 Q 3.660431357666016 0.535458 3.635194607666016 0.4992487499999999 Q 3.609957857666016 0.46303949999999994 3.5836238576660158 0.42353849999999993 Q 3.557289857666016 0.3840374999999999 3.544122857666016 0.36209249999999993 Q 3.506816357666016 0.3840374999999999 3.454148357666016 0.4257329999999999 Q 3.401480357666016 0.4674284999999999 3.354298607666016 0.50144325 Q 3.307116857666016 0.535458 3.287366357666016 0.535458 Q 3.278588357666016 0.535458 3.278588357666016 0.5266799999999999 Q 3.280782857666016 0.5113185 3.313700357666016 0.48498449999999993 Q 3.335645357666016 0.4652339999999999 3.376243607666016 0.4301219999999999 Q 3.4168418576660162 0.39501 3.460731857666016 0.3588007499999999 Q 3.5046218576660157 0.3225914999999999 3.539733857666016 0.29845199999999994 Q 3.5748458576660163 0.27431249999999996 3.585818357666016 0.27431249999999996 M 3.157890857666016 1.347423 Q 3.096444857666016 1.347423 3.050360357666016 1.3188945 Q 2.9735528576660157 1.27281 2.9735528576660157 1.1521125 Q 2.9735528576660157 1.101639 2.991108857666016 1.035804 Q 3.006470357666016 0.9809415 3.045971357666016 0.91620375 Q 3.085472357666016 0.8514660000000001 3.139237607666016 0.7922145 Q 3.193002857666016 0.732963 3.256643357666016 0.6956565 Q 3.320283857666016 0.65835 3.383924357666016 0.65835 Q 3.4102583576660157 0.65835 3.430008857666016 0.6649335 Q 3.456342857666016 0.6737115 3.474996107666016 0.69675375 Q 3.493649357666016 0.719796 3.493649357666016 0.754908 Q 3.493649357666016 0.7922145 3.474996107666016 0.7966035 Q 3.456342857666016 0.8009925 3.456342857666016 0.7878255 Q 3.456342857666016 0.7834365 3.4574401076660157 0.7790475 Q 3.458537357666016 0.7746585 3.458537357666016 0.772464 Q 3.458537357666016 0.754908 3.448662107666016 0.7406437499999999 Q 3.438786857666016 0.7263795 3.412452857666016 0.7263795 Q 3.3773408576660158 0.7263795 3.325770107666016 0.763686 Q 3.2741993576660158 0.8009925 3.220434107666016 0.86353575 Q 3.166668857666016 0.926079 3.126070607666016 1.000692 Q 3.085472357666016 1.075305 3.072305357666016 1.149918 Q 3.070110857666016 1.1608905 3.069013607666016 1.1707657500000002 Q 3.067916357666016 1.180641 3.067916357666016 1.1916135 Q 3.067916357666016 1.2420870000000002 3.090958607666016 1.27610175 Q 3.114000857666016 1.3101165000000001 3.164474357666016 1.3101165000000001 Q 3.225920357666016 1.3101165000000001 3.2829773576660157 1.26293475 Q 3.340034357666016 1.215753 3.385021607666016 1.149918 Q 3.430008857666016 1.0840830000000001 3.451953857666016 1.0336095 Q 3.469509857666016 0.9941085000000001 3.476093357666016 0.96558 Q 3.482676857666016 0.9370515 3.482676857666016 0.917301 Q 3.482676857666016 0.899745 3.479385107666016 0.886578 Q 3.476093357666016 0.8734109999999999 3.471704357666016 0.864633 Q 3.467315357666016 0.8514660000000001 3.467315357666016 0.8448825 Q 3.467315357666016 0.8273265000000001 3.481579607666016 0.816354 Q 3.4958438576660162 0.8053815 3.5112053576660163 0.8053815 Q 3.524372357666016 0.8053815 3.539733857666016 0.8141595 Q 3.557289857666016 0.8185485 3.588012857666016 0.820743 Q 3.618735857666016 0.8229375 3.6538478576660163 0.8229375 Q 3.691154357666016 0.8229375 3.729558107666016 0.820743 Q 3.767961857666016 0.8185485 3.7964903576660163 0.811965 Q 3.800879357666016 0.8097705 3.809657357666016 0.8097705 Q 3.825018857666016 0.8097705 3.825018857666016 0.8185485 Q 3.825018857666016 0.8273265000000001 3.809657357666016 0.8339099999999999 Q 3.7328498576660163 0.869022 3.672501107666016 0.8712165000000001 Q 3.612152357666016 0.8734109999999999 3.5682623576660157 0.8734109999999999 Q 3.572651357666016 0.9282735 3.544122857666016 0.99081675 Q 3.515594357666016 1.05336 3.484871357666016 1.101639 Q 3.447564857666016 1.1565015 3.399285857666016 1.2135585 Q 3.351006857666016 1.2706155000000001 3.291755357666016 1.30901925 Q 3.232503857666016 1.347423 3.157890857666016 1.347423 M 4.356103930664062 0.6781005 Q 4.323186430664062 0.6693224999999999 4.281490930664063 0.64189125 Q 4.239795430664063 0.61446 4.209072430664063 0.57166725 Q 4.1783494306640625 0.5288744999999999 4.1783494306640625 0.4762065 Q 4.1783494306640625 0.452067 4.187127430664063 0.4279274999999999 Q 4.187127430664063 0.4257329999999999 4.188224680664063 0.412566 Q 4.189321930664063 0.39939899999999995 4.191516430664063 0.390621 Q 4.215655930664063 0.28089600000000003 4.303435930664063 0.2095747499999998 Q 4.391215930664063 0.1382534999999998 4.518496930664063 0.0987524999999998 Q 4.645777930664063 0.05925149999999979 4.784031430664063 0.05047349999999984 Q 4.810365430664063 0.04827899999999996 4.836699430664063 0.04827899999999996 Q 4.863033430664062 0.04827899999999996 4.889367430664063 0.04827899999999996 Q 5.042982430664063 0.04827899999999996 5.194402930664063 0.06802949999999996 Q 5.345823430664063 0.08777999999999997 5.469812680664063 0.10643324999999981 Q 5.593801930664063 0.12508649999999988 5.666220430664063 0.12728099999999998 Q 5.727666430664063 0.06364049999999999 5.756194930664063 0.05705699999999991 Q 5.762778430664063 0.054862499999999814 5.775945430664063 0.054862499999999814 Q 5.800084930664063 0.054862499999999814 5.819835430664063 0.0669322499999998 Q 5.839585930664063 0.0790019999999998 5.839585930664063 0.1009469999999999 Q 5.839585930664063 0.1206974999999999 5.822029930664063 0.1382534999999998 Q 5.806668430664063 0.15361499999999984 5.773750930664063 0.17555999999999994 Q 5.740833430664063 0.19750499999999982 5.710110430664063 0.23042249999999997 Q 5.666220430664063 0.27431249999999996 5.631108430664063 0.3291749999999999 Q 5.595996430664063 0.3840374999999999 5.595996430664063 0.434511 Q 5.595996430664063 0.4718175 5.613552430664063 0.49815149999999997 Q 5.617941430664063 0.5025405 5.617941430664063 0.5069294999999999 Q 5.617941430664063 0.5244854999999999 5.600385430664063 0.5244854999999999 Q 5.585023930664063 0.5244854999999999 5.567467930664063 0.5069294999999999 Q 5.549911930664063 0.48498449999999993 5.549911930664063 0.412566 Q 5.549911930664063 0.3686759999999999 5.5586899306640625 0.31820249999999994 Q 5.567467930664063 0.2677289999999999 5.5894129306640625 0.2260335 Q 5.598190930664063 0.21067199999999997 5.614649680664063 0.18982425000000003 Q 5.631108430664063 0.16897649999999986 5.639886430664063 0.1580039999999998 Q 5.481882430664063 0.15580949999999993 5.3194894306640625 0.1404479999999999 Q 5.157096430664063 0.12508649999999988 4.999092430664063 0.12508649999999988 Q 4.9244794306640625 0.12508649999999988 4.832310430664063 0.13496175 Q 4.740141430664063 0.14483699999999988 4.643583430664063 0.16678199999999999 Q 4.547025430664063 0.18872699999999987 4.4636344306640625 0.22932524999999981 Q 4.380243430664063 0.2699235 4.3209919306640625 0.3291749999999999 Q 4.261740430664063 0.3884264999999999 4.244184430664062 0.4718175 Q 4.2419899306640625 0.48059549999999995 4.2408926806640626 0.4871789999999999 Q 4.239795430664063 0.4937625 4.239795430664063 0.500346 Q 4.239795430664063 0.5420415 4.265032180664063 0.5705699999999999 Q 4.2902689306640625 0.5990985 4.323186430664062 0.6177517499999999 Q 4.356103930664062 0.636405 4.373659930664063 0.6517665 Q 4.389021430664063 0.6605445 4.389021430664063 0.6693224999999999 Q 4.389021430664063 0.6781005 4.379146180664063 0.680295 Q 4.3692709306640625 0.6824895 4.356103930664062 0.6781005 M 4.573359430664063 1.382535 Q 4.566775930664063 1.382535 4.547025430664063 1.378146 Q 4.5272749306640625 1.3737570000000001 4.509718930664063 1.3671735 Q 4.492162930664063 1.36059 4.489968430664063 1.351812 Q 4.483384930664062 1.3101165000000001 4.5108161806640625 1.23221175 Q 4.538247430664063 1.154307 4.583234680664063 1.0599435000000001 Q 4.628221930664063 0.96558 4.677598180664063 0.8712165000000001 Q 4.726974430664063 0.776853 4.768669930664062 0.7011427499999999 Q 4.810365430664063 0.6254325 4.830115930664062 0.5859314999999999 Q 4.847671930664063 0.5486249999999999 4.847671930664063 0.5244854999999999 Q 4.847671930664063 0.513513 4.846574680664062 0.50802675 Q 4.8454774306640624 0.5025405 4.843282930664063 0.49815149999999997 Q 4.847671930664063 0.4718175 4.8762004306640625 0.4279274999999999 Q 4.904728930664063 0.3840374999999999 4.946424430664063 0.34014749999999994 Q 4.9881199306640625 0.29625749999999984 5.0353016806640625 0.26663174999999995 Q 5.0824834306640625 0.23700599999999983 5.126373430664063 0.23700599999999983 Q 5.139540430664063 0.23700599999999983 5.172457930664063 0.24688124999999994 Q 5.205375430664063 0.25675649999999983 5.231709430664063 0.27870149999999994 Q 5.258043430664063 0.30064650000000004 5.253654430664063 0.33575849999999996 Q 5.238292930664063 0.3247859999999999 5.227320430664063 0.3247859999999999 Q 5.1768469306640625 0.3247859999999999 5.117595430664063 0.373065 Q 5.058343930664063 0.42134399999999994 4.995800680664063 0.5025405 Q 4.933257430664063 0.583737 4.872908680664063 0.680295 Q 4.8125599306640625 0.776853 4.759891930664063 0.87450825 Q 4.707223930664063 0.9721635 4.667722930664063 1.05445725 Q 4.628221930664063 1.136751 4.6062769306640625 1.1872245000000001 Q 4.597498930664063 1.2091695 4.593109930664062 1.2267255000000001 Q 4.588720930664063 1.2442815 4.588720930664063 1.255254 Q 4.588720930664063 1.2859770000000001 4.610665930664063 1.2859770000000001 Q 4.626027430664063 1.2859770000000001 4.643583430664063 1.2739072500000002 Q 4.661139430664063 1.2618375 4.676500930664063 1.2442815 Q 4.700640430664063 1.215753 4.720390930664063 1.19051625 Q 4.740141430664063 1.1652795 4.755502930664063 1.1696685 Q 4.757697430664063 1.171863 4.757697430664063 1.176252 Q 4.757697430664063 1.189419 4.744530430664063 1.2069750000000001 Q 4.731363430664063 1.224531 4.729168930664063 1.2267255000000001 Q 4.711612930664063 1.2486705 4.6863761806640625 1.2859770000000001 Q 4.661139430664063 1.3232835 4.632610930664063 1.35290925 Q 4.604082430664063 1.382535 4.573359430664063 1.382535 M 5.600382216064453 1.3452285000000002 Q 5.5630757160644535 1.3452285000000002 5.5312554660644535 1.3276725 Q 5.4994352160644535 1.3101165000000001 5.4840737160644535 1.2618375 Q 5.477490216064453 1.2420870000000002 5.477490216064453 1.2069750000000001 Q 5.477490216064453 1.158696 5.490657216064453 1.0994445 Q 5.503824216064453 1.040193 5.519185716064453 0.9984975 Q 5.508213216064453 1.0028865 5.478587466064454 1.03690125 Q 5.448961716064454 1.070916 5.406168966064453 1.11809775 Q 5.363376216064453 1.1652795 5.311805466064453 1.21246125 Q 5.260234716064454 1.259643 5.205372216064453 1.2903660000000001 Q 5.1505097160644535 1.321089 5.097841716064453 1.321089 Q 5.062729716064453 1.321089 5.0232287160644535 1.30024125 Q 4.983727716064453 1.2793935 4.9595882160644535 1.2464760000000001 Q 4.926670716064454 1.2025860000000002 4.926670716064454 1.1565015 Q 4.926670716064454 1.09725 4.967268966064453 1.0336095 Q 5.0078672160644535 0.9699690000000001 5.072604966064453 0.90962025 Q 5.137342716064453 0.8492715 5.210858466064454 0.79989525 Q 5.284374216064453 0.7505189999999999 5.351306466064454 0.71650425 Q 5.418238716064454 0.6824895 5.459934216064453 0.671517 Q 5.503824216064453 0.65835 5.558686716064454 0.65835 Q 5.589409716064454 0.65835 5.622327216064454 0.66603075 Q 5.655244716064454 0.6737115 5.677189716064453 0.6912674999999999 Q 5.694745716064453 0.7000455 5.7057182160644535 0.715407 Q 5.716690716064454 0.7307684999999999 5.716690716064454 0.7483245 Q 5.716690716064454 0.7658805 5.701329216064454 0.759297 Q 5.683773216064454 0.732963 5.654147466064454 0.72528225 Q 5.624521716064454 0.7176015 5.593798716064454 0.7176015 Q 5.506018716064453 0.7176015 5.400682716064454 0.7746585 Q 5.295346716064453 0.8317155 5.211955716064454 0.908523 Q 5.185621716064453 0.9304680000000001 5.140634466064453 0.98423325 Q 5.095647216064453 1.0379985 5.058340716064453 1.101639 Q 5.021034216064454 1.1652795 5.021034216064454 1.2179475 Q 5.021034216064454 1.2464760000000001 5.036395716064454 1.268421 Q 5.045173716064453 1.2837825 5.064924216064453 1.2837825 Q 5.095647216064453 1.2837825 5.147217966064454 1.2508650000000001 Q 5.1987887160644535 1.2179475 5.253651216064453 1.1707657500000002 Q 5.3085137160644535 1.1235840000000001 5.353500966064454 1.079694 Q 5.398488216064454 1.035804 5.418238716064454 1.0160535 Q 5.429211216064453 1.0050810000000001 5.461031466064453 0.97106625 Q 5.492851716064454 0.9370515 5.530158216064454 0.8975505 Q 5.567464716064453 0.8580495 5.597090466064453 0.829521 Q 5.6267162160644535 0.8009925 5.635494216064453 0.8009925 Q 5.646466716064453 0.8009925 5.671703466064454 0.80647875 Q 5.696940216064453 0.811965 5.714496216064454 0.8229375 Q 5.732052216064453 0.8339099999999999 5.7210797160644535 0.8514660000000001 Q 5.664022716064453 0.934857 5.630007966064453 1.02592875 Q 5.595993216064453 1.1170005 5.589409716064454 1.1696685 Q 5.587215216064453 1.1784465 5.587215216064453 1.18612725 Q 5.587215216064453 1.193808 5.587215216064453 1.2025860000000002 Q 5.587215216064453 1.2903660000000001 5.648661216064453 1.2903660000000001 Q 5.681578716064453 1.2903660000000001 5.736441216064454 1.2508650000000001 Q 5.791303716064453 1.211364 5.8483607160644535 1.1565015 Q 5.905417716064454 1.101639 5.952599466064454 1.05006825 Q 5.999781216064454 0.9984975 6.017337216064453 0.9721635 Q 6.0239207160644535 0.96558 6.030504216064454 0.96558 Q 6.0392822160644535 0.96558 6.045865716064453 0.97326075 Q 6.052449216064454 0.9809415 6.045865716064453 0.991914 Q 6.021726216064454 1.031415 5.9756417160644535 1.0862775 Q 5.929557216064453 1.14114 5.872500216064453 1.1960025 Q 5.815443216064454 1.2508650000000001 5.760580716064453 1.2903660000000001 Q 5.732052216064453 1.312311 5.688162216064454 1.32876975 Q 5.644272216064453 1.3452285000000002 5.600382216064453 1.3452285000000002 M 5.8527561452636725 1.7446275 Q 5.833005645263673 1.7446275 5.833005645263673 1.720488 Q 5.833005645263673 1.6392915000000001 5.880187395263673 1.5471225000000002 Q 5.927369145263673 1.4549535 5.996495895263672 1.36388175 Q 6.065622645263673 1.27281 6.134749395263673 1.19709975 Q 6.203876145263672 1.1213895 6.251057895263672 1.07201325 Q 6.298239645263672 1.022637 6.298239645263672 1.013859 Q 6.298239645263672 0.991914 6.285072645263672 0.95131575 Q 6.271905645263673 0.9107175000000001 6.2499606452636725 0.87670275 Q 6.228015645263673 0.842688 6.2016816452636725 0.842688 Q 6.168764145263673 0.842688 6.128165895263672 0.89425875 Q 6.087567645263673 0.9458295 6.030510645263672 1.0116645 Q 6.017343645263672 1.027026 6.006371145263673 1.027026 Q 5.993204145263673 1.027026 5.993204145263673 1.0116645 Q 5.993204145263673 0.9984975 6.001982145263673 0.9897195000000001 Q 6.021732645263673 0.96558 6.054650145263673 0.92059275 Q 6.087567645263673 0.8756055 6.124874145263672 0.82842375 Q 6.162180645263673 0.781242 6.198389895263673 0.74942175 Q 6.234599145263672 0.7176015 6.260933145263673 0.7176015 Q 6.315795645263672 0.7176015 6.339935145263673 0.7505189999999999 Q 6.364074645263672 0.7834365 6.377241645263672 0.83281275 Q 6.390408645263673 0.882189 6.4079646452636725 0.9370515 Q 6.489161145263672 0.860244 6.5659686452636725 0.79550625 Q 6.642776145263673 0.7307684999999999 6.737139645263673 0.671517 Q 6.752501145263673 0.662739 6.770057145263673 0.662739 Q 6.796391145263673 0.662739 6.816141645263673 0.6781005 Q 6.8358921452636725 0.693462 6.8358921452636725 0.7176015 Q 6.8358921452636725 0.7395465 6.815044395263673 0.7406437499999999 Q 6.794196645263673 0.741741 6.783224145263673 0.74613 Q 6.702027645263673 0.776853 6.655943145263673 0.807576 Q 6.609858645263673 0.838299 6.574746645263673 0.8668275 L 6.418937145263673 0.991914 Q 6.418937145263673 1.0160535 6.443076645263672 1.079694 Q 6.467216145263673 1.1433345 6.497939145263673 1.2025860000000002 Q 6.539634645263673 1.2793935 6.592302645263673 1.2793935 Q 6.627414645263673 1.2793935 6.662526645263672 1.255254 Q 6.697638645263673 1.2311145000000001 6.732750645263673 1.1960025 Q 6.785418645263673 1.136751 6.836989395263672 1.06981875 Q 6.888560145263673 1.0028865 6.910505145263673 0.9721635 Q 6.917088645263672 0.96558 6.925866645263673 0.96558 Q 6.936839145263672 0.96558 6.942325395263673 0.9743580000000001 Q 6.9478116452636725 0.983136 6.936839145263672 0.9963029999999999 Q 6.923672145263673 1.013859 6.891851895263673 1.057749 Q 6.860031645263673 1.101639 6.8194333952636725 1.1521125 Q 6.778835145263673 1.2025860000000002 6.737139645263673 1.2442815 Q 6.6778881452636725 1.299144 6.632900895263672 1.3188945 Q 6.587913645263672 1.338645 6.5506071452636725 1.338645 Q 6.541829145263673 1.338645 6.530856645263673 1.3375477500000001 Q 6.519884145263672 1.3364505 6.508911645263673 1.334256 Q 6.460632645263672 1.3232835 6.4244233952636725 1.277199 Q 6.388214145263673 1.2311145000000001 6.362977395263672 1.1740575 Q 6.337740645263673 1.1170005 6.322379145263673 1.0774995 Q 6.282878145263672 1.119195 6.226918395263673 1.1795437500000001 Q 6.170958645263672 1.2398925 6.109512645263672 1.31121375 Q 6.048066645263672 1.382535 5.994301395263673 1.457148 Q 5.940536145263673 1.5317610000000002 5.906521395263672 1.5997905000000001 Q 5.872506645263672 1.66782 5.870312145263672 1.720488 Q 5.8681176452636725 1.7446275 5.8527561452636725 1.7446275 M 7.2352836445312505 0.5595975 Q 7.206755144531251 0.5595975 7.176032144531251 0.5541112499999999 Q 7.145309144531251 0.5486249999999999 7.145309144531251 0.513513 Q 7.145309144531251 0.5069294999999999 7.174934894531251 0.48278999999999994 Q 7.2045606445312504 0.45865049999999996 7.236380894531251 0.43341374999999993 Q 7.268201144531251 0.4081769999999999 7.274784644531251 0.4037879999999999 Q 7.312091144531251 0.373065 7.320869144531251 0.373065 Q 7.33184164453125 0.373065 7.320869144531251 0.40159349999999994 Q 7.309896644531251 0.4301219999999999 7.309896644531251 0.452067 Q 7.309896644531251 0.46303949999999994 7.296729644531251 0.4893734999999999 Q 7.283562644531251 0.5157075 7.266006644531251 0.5376525 Q 7.248450644531251 0.5595975 7.2352836445312505 0.5595975 M 6.996083144531251 1.3452285000000002 Q 6.956582144531251 1.3452285000000002 6.924761894531251 1.3276725 Q 6.892941644531251 1.3101165000000001 6.877580144531251 1.2618375 Q 6.875385644531251 1.255254 6.874288394531251 1.2486705 Q 6.873191144531251 1.2420870000000002 6.873191144531251 1.233309 Q 6.873191144531251 1.189419 6.892941644531251 1.1235840000000001 Q 6.912692144531251 1.057749 6.941220644531251 0.9963029999999999 Q 6.928053644531251 1.013859 6.910497644531251 1.03909575 Q 6.892941644531251 1.0643325 6.860024144531251 1.1038335 Q 6.851246144531251 1.1126115 6.840273644531251 1.1126115 Q 6.824912144531251 1.1126115 6.824912144531251 1.0950555 Q 6.824912144531251 1.0818885 6.833690144531251 1.0731105 Q 6.890747144531251 1.000692 6.935734394531251 0.943635 Q 6.9807216445312505 0.886578 7.002666644531251 0.8470770000000001 Q 7.002666644531251 0.8448825 7.001569394531251 0.84378525 Q 7.000472144531251 0.842688 7.000472144531251 0.8404935 Q 7.000472144531251 0.8339099999999999 7.007055644531251 0.820743 Q 7.024611644531251 0.768075 7.043264894531251 0.73186575 Q 7.061918144531251 0.6956565 7.083863144531251 0.6912674999999999 Q 7.088252144531251 0.6912674999999999 7.0926411445312505 0.69017025 Q 7.097030144531251 0.6890729999999999 7.101419144531251 0.6890729999999999 Q 7.125558644531251 0.6890729999999999 7.145309144531251 0.7000455 Q 7.165059644531251 0.7110179999999999 7.165059644531251 0.732963 Q 7.165059644531251 0.7527135 7.150795394531251 0.781242 Q 7.136531144531251 0.8097705 7.114586144531251 0.8514660000000001 Q 7.066307144531251 0.952413 7.027903394531251 1.03470675 Q 6.989499644531251 1.1170005 6.985110644531251 1.1696685 Q 6.98291614453125 1.1784465 6.98291614453125 1.18612725 Q 6.98291614453125 1.193808 6.98291614453125 1.2025860000000002 Q 6.98291614453125 1.2903660000000001 7.039973144531251 1.2903660000000001 Q 7.075085144531251 1.2903660000000001 7.129947644531251 1.25196225 Q 7.184810144531251 1.2135585 7.241867144531251 1.15759875 Q 7.2989241445312505 1.101639 7.3461058945312505 1.05006825 Q 7.3932876445312505 0.9984975 7.410843644531251 0.9721635 Q 7.417427144531251 0.96558 7.424010644531251 0.96558 Q 7.432788644531251 0.96558 7.438274894531251 0.9721635 Q 7.443761144531251 0.978747 7.439372144531251 0.9897195000000001 Q 7.419621644531251 1.027026 7.372439894531251 1.08298575 Q 7.325258144531251 1.1389455 7.2671038945312505 1.1949052500000001 Q 7.208949644531251 1.2508650000000001 7.154087144531251 1.2903660000000001 Q 7.125558644531251 1.312311 7.082765894531251 1.32876975 Q 7.039973144531251 1.3452285000000002 6.996083144531251 1.3452285000000002 M 8.045070217529299 1.553706 Q 7.961679217529298 1.553706 7.911205717529298 1.50652425 Q 7.860732217529298 1.4593425 7.860732217529298 1.3803405 Q 7.860732217529298 1.3232835 7.892552467529298 1.2508650000000001 Q 7.924372717529298 1.1784465 7.994596717529298 1.09725 Q 8.143822717529298 0.9238845 8.327063467529298 0.816354 Q 8.510304217529297 0.7088234999999999 8.723170717529298 0.640794 Q 8.742921217529299 0.5881259999999999 8.768157967529298 0.5025405 Q 8.793394717529297 0.41695499999999996 8.828506717529297 0.32149425 Q 8.863618717529299 0.2260335 8.905314217529298 0.14922599999999986 Q 8.806561717529299 0.14483699999999988 8.696836717529298 0.15690674999999987 Q 8.587111717529298 0.16897649999999986 8.489456467529298 0.19860224999999998 Q 8.391801217529299 0.22822799999999988 8.331452467529298 0.2797987499999999 Q 8.271103717529298 0.3313695 8.271103717529298 0.4059824999999999 Q 8.271103717529298 0.4498724999999999 8.296340467529298 0.4773037499999999 Q 8.321577217529297 0.5047349999999999 8.353397467529298 0.5200965 Q 8.385217717529297 0.535458 8.402773717529298 0.5464304999999999 Q 8.418135217529297 0.5552085 8.418135217529297 0.561792 Q 8.418135217529297 0.5727645 8.396190217529298 0.5661809999999999 Q 8.323771717529297 0.5508195 8.271103717529298 0.49047074999999996 Q 8.218435717529298 0.4301219999999999 8.218435717529298 0.35550899999999996 Q 8.214046717529298 0.27211799999999986 8.260131217529297 0.21506099999999995 Q 8.306215717529298 0.1580039999999998 8.385217717529297 0.12179474999999984 Q 8.464219717529298 0.08558549999999987 8.562972217529298 0.0691267499999999 Q 8.661724717529298 0.05266799999999994 8.762671717529297 0.05266799999999994 Q 8.817534217529298 0.05266799999999994 8.868007717529299 0.055959749999999975 Q 8.918481217529298 0.05925149999999979 8.964565717529299 0.06802949999999996 Q 8.988705217529297 0.03950100000000001 9.017233717529297 0.02194499999999988 Q 9.045762217529298 0.004388999999999976 9.076485217529298 0.004388999999999976 Q 9.100624717529298 0.004388999999999976 9.100624717529298 0.019750500000000004 Q 9.100624717529298 0.03730649999999991 9.076485217529298 0.041695499999999885 Q 9.045762217529298 0.04608449999999986 9.015039217529297 0.0790019999999998 Q 9.043567717529298 0.08777999999999997 9.068804467529297 0.09655799999999992 Q 9.094041217529298 0.10533599999999987 9.115986217529297 0.11630849999999993 Q 9.129153217529298 0.122892 9.150000967529298 0.14483699999999988 Q 9.170848717529298 0.16678199999999999 9.170848717529298 0.17775449999999982 Q 9.170848717529298 0.18872699999999987 9.155487217529299 0.18872699999999987 Q 9.146709217529299 0.18872699999999987 9.133542217529298 0.1865325 Q 9.120375217529299 0.1843379999999999 9.100624717529298 0.17775449999999982 Q 9.047956717529297 0.1601984999999999 8.971149217529298 0.15361499999999984 Q 8.947009717529298 0.21506099999999995 8.922870217529297 0.29625749999999984 Q 8.898730717529299 0.37745399999999996 8.877882967529299 0.45865049999999996 Q 8.857035217529297 0.539847 8.835090217529299 0.6100709999999999 Q 8.947009717529298 0.579348 9.010650217529298 0.579348 Q 9.036984217529298 0.579348 9.045762217529298 0.5859314999999999 Q 9.054540217529299 0.592515 9.054540217529299 0.6034875 Q 9.054540217529299 0.623238 9.039178717529298 0.6166545 Q 9.026011717529299 0.6122655 9.008455717529298 0.6122655 Q 8.977732717529298 0.6122655 8.936037217529298 0.6210435 Q 8.894341717529297 0.6298214999999999 8.860326967529298 0.64628025 Q 8.826312217529297 0.662739 8.817534217529298 0.684684 Q 8.729754217529297 0.9238845 8.627709967529299 1.0906665 Q 8.525665717529298 1.2574485 8.420329717529299 1.35949275 Q 8.314993717529298 1.461537 8.218435717529298 1.5076215000000002 Q 8.121877717529298 1.553706 8.045070217529299 1.553706 M 8.088960217529298 1.4922600000000001 Q 8.170156717529299 1.4922600000000001 8.250255967529299 1.42971675 Q 8.330355217529299 1.3671735 8.402773717529298 1.268421 Q 8.475192217529298 1.1696685 8.536638217529298 1.057749 Q 8.598084217529298 0.9458295 8.641974217529299 0.8448825 Q 8.685864217529298 0.7439355 8.707809217529299 0.6824895 Q 8.527860217529298 0.741741 8.374245217529298 0.8404935 Q 8.220630217529298 0.939246 8.099932717529297 1.088472 Q 8.034097717529297 1.1696685 8.004471967529298 1.24098975 Q 7.974846217529298 1.312311 7.974846217529298 1.3649790000000002 Q 7.974846217529298 1.4242305000000002 8.005569217529297 1.45824525 Q 8.036292217529297 1.4922600000000001 8.088960217529298 1.4922600000000001 M 9.335431931396485 1.356201 Q 9.236679431396485 1.356201 9.164260931396486 1.3101165000000001 Q 9.091842431396485 1.264032 9.091842431396485 1.1696685 Q 9.091842431396485 1.119195 9.122565431396485 1.0467765 Q 9.144510431396485 0.9963029999999999 9.203761931396485 0.9304680000000001 Q 9.263013431396486 0.864633 9.342015431396485 0.80208975 Q 9.421017431396486 0.7395465 9.502213931396485 0.6989482499999999 Q 9.583410431396485 0.65835 9.649245431396485 0.65835 Q 9.673384931396486 0.65835 9.693135431396485 0.6649335 Q 9.730441931396486 0.6781005 9.744706181396484 0.706629 Q 9.758970431396484 0.7351575 9.758970431396484 0.7658805 Q 9.758970431396484 0.794409 9.750192431396485 0.820743 Q 9.741414431396485 0.8470770000000001 9.728247431396486 0.8668275 Q 9.688746431396485 0.926079 9.615230681396485 0.9721635 Q 9.541714931396486 1.018248 9.466004681396486 1.0445820000000001 Q 9.390294431396486 1.070916 9.342015431396485 1.075305 L 9.337626431396485 1.075305 Q 9.309097931396485 1.075305 9.309097931396485 1.057749 Q 9.309097931396485 1.0467765 9.326653931396486 1.0467765 Q 9.379321931396484 1.0423875 9.459421181396486 0.9974002500000001 Q 9.539520431396486 0.952413 9.600966431396486 0.904134 Q 9.627300431396485 0.882189 9.663509681396485 0.842688 Q 9.699718931396486 0.803187 9.699718931396486 0.7658805 Q 9.699718931396486 0.7263795 9.662412431396485 0.7263795 Q 9.642661931396486 0.7263795 9.621814181396486 0.7351575 Q 9.600966431396486 0.7439355 9.587799431396485 0.7483245 Q 9.524158931396485 0.7790475 9.447351431396486 0.84378525 Q 9.370543931396485 0.908523 9.308000681396486 0.98862225 Q 9.245457431396485 1.0687215 9.221317931396484 1.149918 Q 9.214734431396485 1.1674740000000001 9.212539931396485 1.18393275 Q 9.210345431396485 1.2003915 9.210345431396485 1.215753 Q 9.210345431396485 1.268421 9.244360181396486 1.2903660000000001 Q 9.278374931396485 1.312311 9.326653931396486 1.312311 Q 9.399072431396485 1.312311 9.475879931396486 1.28049075 Q 9.552687431396485 1.2486705 9.625105931396485 1.198197 Q 9.697524431396484 1.1477235000000001 9.757873181396485 1.08956925 Q 9.818221931396485 1.031415 9.859917431396486 0.9765524999999999 Q 9.866500931396486 0.9677745 9.875278931396485 0.96667725 Q 9.884056931396485 0.96558 9.886251431396484 0.9699690000000001 Q 9.895029431396486 0.9721635 9.895029431396486 0.9820387500000001 Q 9.895029431396486 0.991914 9.890640431396486 1.000692 Q 9.829194431396486 1.0862775 9.742511681396484 1.1674740000000001 Q 9.655828931396485 1.2486705 9.551590181396485 1.3024357500000001 Q 9.447351431396486 1.356201 9.335431931396485 1.356201 M 10.45236599633789 1.3452285000000002 Q 10.415059496337891 1.3452285000000002 10.38323924633789 1.3276725 Q 10.351418996337891 1.3101165000000001 10.33605749633789 1.2618375 Q 10.32947399633789 1.2420870000000002 10.32947399633789 1.2069750000000001 Q 10.32947399633789 1.158696 10.342640996337892 1.0994445 Q 10.35580799633789 1.040193 10.371169496337892 0.9984975 Q 10.36019699633789 1.0028865 10.330571246337891 1.03690125 Q 10.30094549633789 1.070916 10.258152746337892 1.11809775 Q 10.215359996337892 1.1652795 10.163789246337892 1.21246125 Q 10.11221849633789 1.259643 10.057355996337892 1.2903660000000001 Q 10.002493496337891 1.321089 9.94982549633789 1.321089 Q 9.91471349633789 1.321089 9.875212496337891 1.30024125 Q 9.835711496337892 1.2793935 9.811571996337891 1.2464760000000001 Q 9.778654496337891 1.2025860000000002 9.778654496337891 1.1565015 Q 9.778654496337891 1.09725 9.819252746337892 1.0336095 Q 9.85985099633789 0.9699690000000001 9.924588746337891 0.90962025 Q 9.98932649633789 0.8492715 10.06284224633789 0.79989525 Q 10.13635799633789 0.7505189999999999 10.203290246337891 0.71650425 Q 10.27022249633789 0.6824895 10.311917996337892 0.671517 Q 10.35580799633789 0.65835 10.410670496337891 0.65835 Q 10.441393496337891 0.65835 10.474310996337891 0.66603075 Q 10.507228496337891 0.6737115 10.529173496337892 0.6912674999999999 Q 10.54672949633789 0.7000455 10.55770199633789 0.715407 Q 10.568674496337891 0.7307684999999999 10.568674496337891 0.7483245 Q 10.568674496337891 0.7658805 10.55331299633789 0.759297 Q 10.535756996337891 0.732963 10.50613124633789 0.72528225 Q 10.476505496337891 0.7176015 10.445782496337891 0.7176015 Q 10.35800249633789 0.7176015 10.252666496337891 0.7746585 Q 10.14733049633789 0.8317155 10.063939496337891 0.908523 Q 10.037605496337891 0.9304680000000001 9.99261824633789 0.98423325 Q 9.94763099633789 1.0379985 9.910324496337891 1.101639 Q 9.873017996337891 1.1652795 9.873017996337891 1.2179475 Q 9.873017996337891 1.2464760000000001 9.88837949633789 1.268421 Q 9.897157496337892 1.2837825 9.91690799633789 1.2837825 Q 9.94763099633789 1.2837825 9.99920174633789 1.2508650000000001 Q 10.05077249633789 1.2179475 10.10563499633789 1.1707657500000002 Q 10.160497496337891 1.1235840000000001 10.205484746337891 1.079694 Q 10.250471996337891 1.035804 10.27022249633789 1.0160535 Q 10.281194996337891 1.0050810000000001 10.31301524633789 0.97106625 Q 10.344835496337891 0.9370515 10.382141996337891 0.8975505 Q 10.41944849633789 0.8580495 10.44907424633789 0.829521 Q 10.478699996337891 0.8009925 10.48747799633789 0.8009925 Q 10.498450496337892 0.8009925 10.523687246337891 0.80647875 Q 10.54892399633789 0.811965 10.566479996337891 0.8229375 Q 10.58403599633789 0.8339099999999999 10.573063496337891 0.8514660000000001 Q 10.51600649633789 0.934857 10.481991746337892 1.02592875 Q 10.447976996337891 1.1170005 10.441393496337891 1.1696685 Q 10.439198996337892 1.1784465 10.439198996337892 1.18612725 Q 10.439198996337892 1.193808 10.439198996337892 1.2025860000000002 Q 10.439198996337892 1.2903660000000001 10.500644996337892 1.2903660000000001 Q 10.533562496337892 1.2903660000000001 10.58842499633789 1.2508650000000001 Q 10.64328749633789 1.211364 10.700344496337891 1.1565015 Q 10.757401496337891 1.101639 10.804583246337891 1.05006825 Q 10.851764996337891 0.9984975 10.86932099633789 0.9721635 Q 10.875904496337892 0.96558 10.882487996337892 0.96558 Q 10.891265996337891 0.96558 10.89784949633789 0.97326075 Q 10.90443299633789 0.9809415 10.89784949633789 0.991914 Q 10.87370999633789 1.031415 10.827625496337891 1.0862775 Q 10.781540996337892 1.14114 10.724483996337892 1.1960025 Q 10.667426996337891 1.2508650000000001 10.61256449633789 1.2903660000000001 Q 10.58403599633789 1.312311 10.540145996337891 1.32876975 Q 10.49625599633789 1.3452285000000002 10.45236599633789 1.3452285000000002 M 10.74643542553711 1.351812 Q 10.731073925537109 1.351812 10.73765742553711 1.3364505 Q 10.74424092553711 1.3232835 10.761796925537109 1.27610175 Q 10.77935292553711 1.22892 10.802395175537109 1.1630850000000001 Q 10.825437425537109 1.09725 10.849576925537109 1.027026 Q 10.87371642553711 0.9568019999999999 10.89456417553711 0.895356 Q 10.915411925537109 0.8339099999999999 10.92857892553711 0.798798 Q 10.93296792553711 0.785631 10.93735692553711 0.7603942499999999 Q 10.94174592553711 0.7351575 10.95601017553711 0.71430975 Q 10.97027442553711 0.693462 11.00538642553711 0.693462 Q 11.071221425537109 0.693462 11.071221425537109 0.724185 Q 11.071221425537109 0.7351575 11.06024892553711 0.7614915 Q 11.03391492553711 0.820743 11.00319192553711 0.8975505 Q 10.97246892553711 0.9743580000000001 10.948329425537109 1.0423875 Q 10.924189925537108 1.110417 10.91102292553711 1.1477235000000001 Q 10.93296792553711 1.1170005 10.98234417553711 1.0599435000000001 Q 11.03172042553711 1.0028865 11.09316642553711 0.9370515 Q 11.15461242553711 0.8712165000000001 11.221544675537109 0.8097705 Q 11.28847692553711 0.7483245 11.346631175537109 0.70992075 Q 11.40478542553711 0.671517 11.44648092553711 0.671517 Q 11.49914892553711 0.671517 11.49914892553711 0.7285739999999999 Q 11.49914892553711 0.7483245 11.488176425537109 0.7878255 Q 11.46842592553711 0.842688 11.43770292553711 0.89425875 Q 11.40697992553711 0.9458295 11.38284042553711 1.0028865 Q 11.34114492553711 1.106028 11.334561425537109 1.1696685 Q 11.332366925537109 1.1784465 11.332366925537109 1.18612725 Q 11.332366925537109 1.193808 11.332366925537109 1.2025860000000002 Q 11.332366925537109 1.2903660000000001 11.391618425537109 1.2903660000000001 Q 11.424535925537109 1.2903660000000001 11.47939842553711 1.2508650000000001 Q 11.53426092553711 1.211364 11.59241517553711 1.1565015 Q 11.650569425537109 1.101639 11.69665392553711 1.05006825 Q 11.742738425537109 0.9984975 11.76029442553711 0.9721635 Q 11.76687792553711 0.96558 11.773461425537109 0.96558 Q 11.78223942553711 0.96558 11.787725675537109 0.9721635 Q 11.79321192553711 0.978747 11.78882292553711 0.9897195000000001 Q 11.769072425537109 1.027026 11.721890675537109 1.08298575 Q 11.674708925537109 1.1389455 11.617651925537109 1.1949052500000001 Q 11.56059492553711 1.2508650000000001 11.50573242553711 1.2903660000000001 Q 11.47281492553711 1.312311 11.424535925537109 1.3298670000000001 Q 11.37625692553711 1.347423 11.327977925537109 1.3452285000000002 Q 11.266531925537109 1.338645 11.240197925537109 1.3024357500000001 Q 11.21386392553711 1.2662265000000001 11.21386392553711 1.215753 Q 11.21386392553711 1.1565015 11.23690617553711 1.08956925 Q 11.25994842553711 1.022637 11.28847692553711 0.9633855 Q 11.31700542553711 0.904134 11.334561425537109 0.8734109999999999 Q 11.35211742553711 0.838299 11.35211742553711 0.8185485 Q 11.35211742553711 0.8009925 11.336755925537108 0.8009925 Q 11.32139442553711 0.8009925 11.29067142553711 0.820743 Q 11.25994842553711 0.8404935 11.207280425537109 0.8887725 Q 11.15900142553711 0.9304680000000001 11.104138925537109 0.9974002500000001 Q 11.049276425537109 1.0643325 10.997705675537109 1.1345565 Q 10.946134925537109 1.2047805 10.907731175537108 1.255254 Q 10.86932742553711 1.3057275000000002 10.853965925537109 1.3145055 Q 10.84299342553711 1.321089 10.804589675537109 1.3364505 Q 10.766185925537108 1.351812 10.74643542553711 1.351812 M 11.995087709472656 0.9502185000000001 Q 11.955586709472657 0.9502185000000001 11.955586709472657 0.9282735 Q 11.955586709472657 0.9107175000000001 11.980823459472656 0.8909670000000001 Q 12.006060209472658 0.8712165000000001 12.028005209472656 0.8712165000000001 Q 12.052144709472657 0.8712165000000001 12.111396209472657 0.87011925 Q 12.170647709472657 0.869022 12.238677209472657 0.86792475 Q 12.306706709472657 0.8668275 12.350596709472656 0.8668275 Q 12.405459209472657 0.8668275 12.439473959472657 0.87670275 Q 12.473488709472656 0.886578 12.473488709472656 0.8975505 Q 12.473488709472656 0.9107175000000001 12.447154709472656 0.917301 Q 12.420820709472657 0.9238845 12.392292209472657 0.92717625 Q 12.363763709472657 0.9304680000000001 12.352791209472656 0.9326625 Q 12.300123209472657 0.934857 12.228801959472657 0.939246 Q 12.157480709472656 0.943635 12.092742959472657 0.94692675 Q 12.028005209472656 0.9502185000000001 11.995087709472656 0.9502185000000001 M 12.561217275878906 1.4922600000000001 Q 12.512938275878906 1.4922600000000001 12.482215275878906 1.461537 Q 12.451492275878906 1.430814 12.451492275878906 1.3759515 Q 12.451492275878906 1.3452285000000002 12.463562025878906 1.30682475 Q 12.475631775878906 1.268421 12.504160275878906 1.224531 Q 12.554633775878907 1.145529 12.634733025878907 1.04787375 Q 12.714832275878907 0.9502185000000001 12.804806775878907 0.8536604999999999 Q 12.894781275878906 0.7571025 12.974880525878906 0.67700325 Q 13.054979775878905 0.596904 13.103258775878906 0.553014 Q 13.125203775878907 0.4871789999999999 13.146051525878907 0.41695499999999996 Q 13.166899275878906 0.3467309999999999 13.188844275878907 0.27211799999999986 Q 13.127398275878907 0.3291749999999999 13.049493525878907 0.35770349999999995 Q 12.971588775878907 0.3862319999999999 12.903559275878907 0.390621 L 12.901364775878907 0.390621 Q 12.879419775878906 0.390621 12.879419775878906 0.37525949999999997 Q 12.879419775878906 0.35770349999999995 12.905753775878907 0.35550899999999996 Q 12.969394275878907 0.3489254999999999 13.037423775878906 0.30613274999999995 Q 13.105453275878906 0.2633399999999999 13.163607525878906 0.19640774999999988 Q 13.221761775878907 0.12947549999999985 13.252484775878907 0.05266799999999994 Q 13.256873775878907 0.03950100000000001 13.282110525878906 0.03291749999999993 Q 13.307347275878906 0.026333999999999858 13.335875775878906 0.026333999999999858 Q 13.360015275878906 0.026333999999999858 13.378668525878906 0.031820249999999994 Q 13.397321775878906 0.03730649999999991 13.392932775878906 0.05266799999999994 Q 13.353431775878907 0.15361499999999984 13.316125275878907 0.24688124999999994 Q 13.278818775878907 0.34014749999999994 13.243706775878906 0.4279274999999999 Q 13.373182275878907 0.31820249999999994 13.486199025878907 0.24468674999999984 Q 13.599215775878907 0.17117099999999996 13.669439775878907 0.16678199999999999 Q 13.794526275878907 0.1601984999999999 13.865847525878907 0.20847749999999987 Q 13.937168775878906 0.25675649999999983 13.966794525878907 0.3368557499999999 Q 13.996420275878906 0.41695499999999996 13.996420275878906 0.5069294999999999 Q 13.996420275878906 0.5288744999999999 13.995323025878907 0.5486249999999999 Q 13.994225775878906 0.5683754999999999 13.992031275878906 0.5881259999999999 Q 13.981058775878907 0.6890729999999999 13.948141275878907 0.8185485 Q 13.915223775878907 0.948024 13.877917275878907 1.0599435000000001 Q 13.873528275878906 1.070916 13.864750275878906 1.09834725 Q 13.855972275878907 1.1257785 13.862555775878906 1.1257785 Q 13.864750275878906 1.1257785 13.884500775878907 1.09725 Q 13.939363275878906 1.0072755 13.990934025878907 0.92059275 Q 14.042504775878907 0.8339099999999999 14.101756275878905 0.741741 Q 14.189536275878906 0.6056819999999999 14.293775025878906 0.4674284999999999 Q 14.398013775878907 0.3291749999999999 14.503349775878906 0.21944999999999992 Q 14.545045275878905 0.17555999999999994 14.590032525878907 0.15361499999999984 Q 14.635019775878906 0.13166999999999995 14.674520775878907 0.13166999999999995 Q 14.718410775878906 0.13166999999999995 14.748036525878906 0.16129574999999985 Q 14.777662275878907 0.19092149999999997 14.777662275878907 0.25236749999999986 Q 14.777662275878907 0.2677289999999999 14.774370525878906 0.28638224999999995 Q 14.771078775878907 0.3050355 14.766689775878906 0.3269804999999999 Q 14.740355775878907 0.4323165 14.705243775878905 0.5200965 Q 14.670131775878907 0.6078764999999999 14.635019775878906 0.69236475 Q 14.599907775878906 0.776853 14.572476525878907 0.869022 Q 14.545045275878905 0.961191 14.534072775878906 1.0731105 Q 14.531878275878906 1.092861 14.530781025878905 1.110417 Q 14.529683775878906 1.1279730000000001 14.529683775878906 1.1433345 Q 14.529683775878906 1.2179475 14.551628775878907 1.25196225 Q 14.573573775878906 1.2859770000000001 14.608685775878907 1.2859770000000001 Q 14.650381275878907 1.2859770000000001 14.706341025878906 1.24976775 Q 14.762300775878906 1.2135585 14.819357775878906 1.15979325 Q 14.876414775878906 1.106028 14.922499275878906 1.05445725 Q 14.968583775878907 1.0028865 14.990528775878907 0.9721635 Q 14.994917775878907 0.96558 15.003695775878906 0.96558 Q 15.012473775878906 0.96558 15.019057275878907 0.9721635 Q 15.025640775878907 0.978747 15.019057275878907 0.9897195000000001 Q 14.990528775878907 1.0336095 14.938958025878907 1.0917637500000001 Q 14.887387275878906 1.149918 14.831427525878906 1.20368325 Q 14.775467775878907 1.2574485 14.731577775878907 1.2903660000000001 Q 14.698660275878908 1.3145055 14.655867525878907 1.3298670000000001 Q 14.613074775878907 1.3452285000000002 14.571379275878906 1.3452285000000002 Q 14.523100275878907 1.3452285000000002 14.483599275878905 1.321089 Q 14.444098275878906 1.2969495 14.428736775878907 1.237698 Q 14.422153275878907 1.215753 14.419958775878907 1.1916135 Q 14.417764275878906 1.1674740000000001 14.417764275878906 1.14114 Q 14.417764275878906 1.048971 14.444098275878906 0.93595425 Q 14.470432275878906 0.8229375 14.509933275878907 0.70992075 Q 14.549434275878907 0.596904 14.585643525878906 0.50363775 Q 14.621852775878907 0.4103714999999999 14.641603275878907 0.35550899999999996 Q 14.656964775878906 0.3247859999999999 14.656964775878906 0.29845199999999994 Q 14.656964775878906 0.25236749999999986 14.617463775878907 0.25236749999999986 Q 14.584546275878907 0.25236749999999986 14.540656275878906 0.289674 Q 14.477015775878906 0.3445364999999999 14.401305525878907 0.4323165 Q 14.325595275878907 0.5200965 14.247690525878907 0.6254325 Q 14.169785775878907 0.7307684999999999 14.096270025878907 0.8415907499999999 Q 14.022754275878906 0.952413 13.962405525878907 1.05445725 Q 13.902056775878906 1.1565015 13.864750275878906 1.2355035 Q 13.849388775878907 1.268421 13.829638275878906 1.268421 Q 13.814276775878906 1.268421 13.800012525878905 1.2486705 Q 13.785748275878905 1.22892 13.778067525878907 1.20587775 Q 13.770386775878906 1.1828355 13.774775775878906 1.1740575 Q 13.803304275878906 1.1038335 13.827443775878907 1.00178925 Q 13.851583275878907 0.899745 13.866944775878906 0.78453375 Q 13.882306275878907 0.6693224999999999 13.882306275878907 0.5639865 Q 13.882306275878907 0.42353849999999993 13.847194275878906 0.32588324999999996 Q 13.812082275878906 0.22822799999999988 13.724302275878907 0.22822799999999988 Q 13.667245275878907 0.22822799999999988 13.579465275878906 0.27650699999999984 Q 13.491685275878906 0.3247859999999999 13.389641025878905 0.4059824999999999 Q 13.287596775878907 0.4871789999999999 13.180066275878906 0.5859314999999999 Q 13.160315775878907 0.6342105 13.121912025878906 0.7263795 Q 13.083508275878906 0.8185485 13.031937525878906 0.9304680000000001 Q 12.980366775878906 1.0423875 12.917823525878907 1.15320975 Q 12.855280275878906 1.264032 12.789445275878906 1.347423 Q 12.730193775878906 1.422036 12.670942275878906 1.457148 Q 12.611690775878905 1.4922600000000001 12.561217275878906 1.4922600000000001 M 12.572189775878906 1.4154525 Q 12.629246775878906 1.4154525 12.689595525878905 1.35510375 Q 12.749944275878907 1.294755 12.810293025878906 1.20148875 Q 12.870641775878907 1.1082225 12.921115275878906 1.0072755 Q 12.971588775878907 0.9063285 13.007798025878905 0.820743 Q 13.044007275878906 0.7351575 13.059368775878907 0.693462 Q 12.997922775878907 0.7527135 12.929893275878907 0.82403475 Q 12.861863775878906 0.895356 12.797126025878907 0.96887175 Q 12.732388275878906 1.0423875 12.679720275878907 1.106028 Q 12.627052275878906 1.1696685 12.596329275878906 1.211364 Q 12.561217275878906 1.259643 12.544758525878906 1.2980467500000001 Q 12.528299775878907 1.3364505 12.528299775878907 1.3649790000000002 Q 12.528299775878907 1.4154525 12.572189775878906 1.4154525 M 15.31305598388672 0.5595975 Q 15.28452748388672 0.5595975 15.25380448388672 0.5541112499999999 Q 15.22308148388672 0.5486249999999999 15.22308148388672 0.513513 Q 15.22308148388672 0.5069294999999999 15.252707233886719 0.48278999999999994 Q 15.28233298388672 0.45865049999999996 15.314153233886719 0.43341374999999993 Q 15.34597348388672 0.4081769999999999 15.35255698388672 0.4037879999999999 Q 15.38986348388672 0.373065 15.398641483886719 0.373065 Q 15.40961398388672 0.373065 15.398641483886719 0.40159349999999994 Q 15.38766898388672 0.4301219999999999 15.38766898388672 0.452067 Q 15.38766898388672 0.46303949999999994 15.37450198388672 0.4893734999999999 Q 15.361334983886719 0.5157075 15.34377898388672 0.5376525 Q 15.32622298388672 0.5595975 15.31305598388672 0.5595975 M 15.07385548388672 1.3452285000000002 Q 15.03435448388672 1.3452285000000002 15.002534233886719 1.3276725 Q 14.97071398388672 1.3101165000000001 14.955352483886719 1.2618375 Q 14.953157983886719 1.255254 14.95206073388672 1.2486705 Q 14.950963483886719 1.2420870000000002 14.950963483886719 1.233309 Q 14.950963483886719 1.189419 14.97071398388672 1.1235840000000001 Q 14.99046448388672 1.057749 15.018992983886719 0.9963029999999999 Q 15.00582598388672 1.013859 14.988269983886719 1.03909575 Q 14.97071398388672 1.0643325 14.93779648388672 1.1038335 Q 14.92901848388672 1.1126115 14.918045983886719 1.1126115 Q 14.90268448388672 1.1126115 14.90268448388672 1.0950555 Q 14.90268448388672 1.0818885 14.91146248388672 1.0731105 Q 14.96851948388672 1.000692 15.01350673388672 0.943635 Q 15.05849398388672 0.886578 15.080438983886719 0.8470770000000001 Q 15.080438983886719 0.8448825 15.07934173388672 0.84378525 Q 15.078244483886719 0.842688 15.078244483886719 0.8404935 Q 15.078244483886719 0.8339099999999999 15.08482798388672 0.820743 Q 15.10238398388672 0.768075 15.12103723388672 0.73186575 Q 15.139690483886719 0.6956565 15.16163548388672 0.6912674999999999 Q 15.16602448388672 0.6912674999999999 15.170413483886719 0.69017025 Q 15.174802483886719 0.6890729999999999 15.179191483886719 0.6890729999999999 Q 15.203330983886719 0.6890729999999999 15.22308148388672 0.7000455 Q 15.24283198388672 0.7110179999999999 15.24283198388672 0.732963 Q 15.24283198388672 0.7527135 15.22856773388672 0.781242 Q 15.21430348388672 0.8097705 15.19235848388672 0.8514660000000001 Q 15.144079483886719 0.952413 15.10567573388672 1.03470675 Q 15.06727198388672 1.1170005 15.06288298388672 1.1696685 Q 15.06068848388672 1.1784465 15.06068848388672 1.18612725 Q 15.06068848388672 1.193808 15.06068848388672 1.2025860000000002 Q 15.06068848388672 1.2903660000000001 15.11774548388672 1.2903660000000001 Q 15.15285748388672 1.2903660000000001 15.207719983886719 1.25196225 Q 15.26258248388672 1.2135585 15.31963948388672 1.15759875 Q 15.37669648388672 1.101639 15.42387823388672 1.05006825 Q 15.47105998388672 0.9984975 15.488615983886719 0.9721635 Q 15.495199483886719 0.96558 15.50178298388672 0.96558 Q 15.51056098388672 0.96558 15.51604723388672 0.9721635 Q 15.521533483886719 0.978747 15.51714448388672 0.9897195000000001 Q 15.49739398388672 1.027026 15.45021223388672 1.08298575 Q 15.40303048388672 1.1389455 15.344876233886719 1.1949052500000001 Q 15.28672198388672 1.2508650000000001 15.23185948388672 1.2903660000000001 Q 15.203330983886719 1.312311 15.160538233886719 1.32876975 Q 15.11774548388672 1.3452285000000002 15.07385548388672 1.3452285000000002" fill="url(#gradient-12d17cc6-72fe-47cb-a5e8-245edbb725e1)" fill-rule="nonzero"></path></g><g></g></g><defs><clipPath id="SvgjsClipPath167937"><path d=" M 15.729530915283204 -0.27986411343102513 h 4.539136776365453 v 1.8830117268620503 h -4.539136776365453 Z"></path></clipPath><clipPath id="SvgjsClipPath167932d69ff4ce-1706-4854-9a2a-a763a17317e3"><path d=" M 15.729530915283204 -0.27986411343102513 L 20.26866769164866 -0.27986411343102513 L 20.26866769164866 1.6031476134310252 L 15.729530915283204 1.6031476134310252 Z"></path></clipPath><linearGradient id="gradient-12d17cc6-72fe-47cb-a5e8-245edbb725e1" x1="0" y1="0" x2="0" y2="1"><stop stop-color="#000000" offset="0"></stop><stop stop-color="#ba8437" offset="1"></stop></linearGradient></defs></svg>